<svg width="20" height="20" viewBox="0 0 20 20" fill="none" xmlns="http://www.w3.org/2000/svg">
    <path d="M11.6699 9.56248C11.1405 9.56248 10.7225 10.028 10.7225 10.5959C10.7225 11.1638 11.1498 11.6293 11.6699 11.6293C12.1994 11.6293 12.6173 11.1638 12.6173 10.5959C12.6173 10.028 12.1994 9.56248 11.6699 9.56248Z" fill="#FFCB99"/>
    <path d="M8.27975 9.56248C7.75033 9.56248 7.33236 10.028 7.33236 10.5959C7.33236 11.1638 7.75961 11.6293 8.27975 11.6293C8.80918 11.6293 9.22714 11.1638 9.22714 10.5959C9.23643 10.028 8.80918 9.56248 8.27975 9.56248Z" fill="#FFCB99"/>
    <path fill-rule="evenodd" clip-rule="evenodd" d="M10 20C15.5228 20 20 15.5229 20 10C20 4.47714 15.5228 0 10 0C4.47715 0 0 4.47714 0 10C0 15.5229 4.47715 20 10 20ZM12.5988 13.9101L11.9857 13.1561C13.2025 12.8116 13.6669 12.0482 13.6669 12.0482C13.2861 12.2996 12.9238 12.4764 12.5988 12.5975C12.1343 12.793 11.6885 12.9233 11.252 12.9978C10.3603 13.1654 9.54294 13.1188 8.84633 12.9885C8.3169 12.8861 7.86178 12.7371 7.48097 12.5882C7.26734 12.5044 7.03514 12.402 6.80293 12.2716L6.76578 12.2504L6.75649 12.2464L6.71934 12.2251L6.68219 12.1972L6.42212 12.0389C6.42212 12.0389 6.86795 12.7837 8.04755 13.1374L7.42524 13.9101C5.37255 13.845 4.59235 12.4951 4.59235 12.4951C4.59235 9.49732 5.92984 7.06748 5.92984 7.06748C7.26734 6.06203 8.53982 6.08992 8.53982 6.08992L8.6327 6.20164C6.96083 6.68576 6.18991 7.42126 6.18991 7.42126L6.73792 7.15126C7.73175 6.71371 8.52124 6.59266 8.84633 6.56474L9.00423 6.54612C9.57081 6.47167 10.2117 6.45305 10.8804 6.52753C11.7628 6.6299 12.7102 6.89057 13.6762 7.42126C13.6762 7.42126 12.9424 6.72301 11.3634 6.23889L11.4935 6.08992C11.4935 6.08992 12.7659 6.06203 14.1034 7.06748C14.1034 7.06748 15.4409 9.49732 15.4409 12.4951C15.4409 12.4951 14.6806 13.7944 12.5988 13.9101Z" fill="#FFCB99"/>
</svg>
