<svg width="14" height="14" viewBox="0 0 14 14" fill="none" xmlns="http://www.w3.org/2000/svg">
<path fill-rule="evenodd" clip-rule="evenodd" d="M6.99967 13.6666C3.31778 13.6666 0.333008 10.6818 0.333008 6.99992C0.333008 3.31802 3.31778 0.333252 6.99967 0.333252C10.6816 0.333252 13.6663 3.31802 13.6663 6.99992C13.6663 10.6818 10.6816 13.6666 6.99967 13.6666ZM6.99967 1.66659C4.05416 1.66659 1.66634 4.0544 1.66634 6.99992C1.66634 9.94544 4.05416 12.3333 6.99967 12.3333C9.94519 12.3333 12.333 9.94544 12.333 6.99992C12.333 4.0544 9.94519 1.66659 6.99967 1.66659ZM6.99967 6.16659C7.45991 6.16659 7.83301 6.53968 7.83301 6.99992V9.66659C7.83301 10.1268 7.45991 10.4999 6.99967 10.4999C6.53944 10.4999 6.16634 10.1268 6.16634 9.66659V6.99992C6.16634 6.53968 6.53944 6.16659 6.99967 6.16659ZM6.99967 3.66659C6.53944 3.66659 6.16634 4.03968 6.16634 4.49992C6.16634 4.96016 6.53944 5.33325 6.99967 5.33325C7.45991 5.33325 7.83301 4.96016 7.83301 4.49992C7.83301 4.03968 7.45991 3.66659 6.99967 3.66659Z" fill="#A4A7A7"/>
</svg>
