<svg width="12" height="12" viewBox="0 0 12 12" fill="none" xmlns="http://www.w3.org/2000/svg">
    <path fill-rule="evenodd" clip-rule="evenodd" d="M9.77127 2.22879C8.99022 1.44774 7.72389 1.44774 6.94284 2.22879L6.00003 3.1716C5.73968 3.43195 5.31757 3.43194 5.05722 3.1716C4.79687 2.91125 4.79687 2.48914 5.05722 2.22879L6.00003 1.28598C7.30178 -0.01577 9.41233 -0.01577 10.7141 1.28598C12.0158 2.58772 12.0158 4.69827 10.7141 6.00002L9.77127 6.94283C9.51092 7.20318 9.08881 7.20318 8.82846 6.94283C8.56811 6.68248 8.56811 6.26037 8.82846 6.00002L9.77127 5.05721C10.5523 4.27616 10.5523 3.00983 9.77127 2.22879ZM2.2288 9.77126C1.44775 8.99021 1.44775 7.72388 2.2288 6.94283L3.17161 6.00002C3.43196 5.73967 3.43196 5.31756 3.17161 5.05721C2.91126 4.79686 2.48915 4.79686 2.2288 5.05721L1.28599 6.00002C-0.0157589 7.30177 -0.0157587 9.41232 1.28599 10.7141C2.58774 12.0158 4.69829 12.0158 6.00003 10.7141L6.94284 9.77126C7.20319 9.51091 7.20319 9.0888 6.94284 8.82845C6.68249 8.5681 6.26038 8.5681 6.00003 8.82845L5.05722 9.77126C4.27618 10.5523 3.00985 10.5523 2.2288 9.77126ZM8.35706 4.58581C8.61741 4.32546 8.61741 3.90335 8.35706 3.643C8.09671 3.38265 7.6746 3.38265 7.41425 3.643L3.64301 7.41424C3.38266 7.67459 3.38266 8.0967 3.64301 8.35704C3.90336 8.61739 4.32547 8.61739 4.58582 8.35704L8.35706 4.58581Z" fill="#FFAB5C"/>
</svg>
