<svg width="12" height="14" viewBox="0 0 12 14" fill="none" xmlns="http://www.w3.org/2000/svg">
<path fill-rule="evenodd" clip-rule="evenodd" d="M0.292894 8.70711C-0.0976307 8.31658 -0.0976306 7.68342 0.292894 7.29289C0.683418 6.90237 1.31658 6.90237 1.70711 7.29289L6 11.5858L10.2929 7.29289C10.6834 6.90237 11.3166 6.90237 11.7071 7.29289C12.0976 7.68342 12.0976 8.31658 11.7071 8.70711L6.70711 13.7071C6.31658 14.0976 5.68342 14.0976 5.29289 13.7071L0.292894 8.70711ZM0.292895 1.70711C-0.0976298 1.31658 -0.0976297 0.683417 0.292895 0.292893C0.683419 -0.097632 1.31658 -0.0976319 1.70711 0.292893L6 4.58579L10.2929 0.292893C10.6834 -0.0976316 11.3166 -0.0976315 11.7071 0.292893C12.0976 0.683417 12.0976 1.31658 11.7071 1.70711L6.70711 6.70711C6.31658 7.09763 5.68342 7.09763 5.29289 6.70711L0.292895 1.70711Z" fill="white"/>
</svg>
