<svg width="146" height="30" viewBox="0 0 146 30" fill="none" xmlns="http://www.w3.org/2000/svg">
<path d="M39.6424 20.8279C40.6859 20.8279 41.5729 20.6688 42.3033 20.3505C43.0337 20.0323 43.5815 19.607 43.9468 19.0749C44.312 18.5427 44.4946 17.9479 44.4946 17.2905C44.4946 16.5288 44.2937 15.9262 43.892 15.4827C43.4902 15.0392 43.0155 14.7157 42.4676 14.5123C41.9198 14.3088 41.2285 14.1184 40.3937 13.941C39.6529 13.7844 39.1155 13.6331 38.7815 13.487C38.4476 13.341 38.2807 13.1218 38.2807 12.8297C38.2807 12.5375 38.4215 12.3001 38.7033 12.1175C38.985 11.9349 39.4337 11.8436 40.0494 11.8436C41.0302 11.8436 42.0424 12.1253 43.0859 12.6888L44.0407 10.3879C43.5085 10.0749 42.8929 9.83748 42.1937 9.67574C41.4946 9.514 40.785 9.43313 40.065 9.43313C39.0111 9.43313 38.1215 9.58966 37.3963 9.9027C36.6711 10.2157 36.1259 10.641 35.7607 11.1784C35.3955 11.7157 35.2129 12.3184 35.2129 12.9862C35.2129 13.7479 35.4111 14.3531 35.8076 14.8018C36.2042 15.2505 36.6789 15.5766 37.232 15.7801C37.785 15.9836 38.4737 16.174 39.2981 16.3514C40.0494 16.5184 40.5946 16.6775 40.9337 16.8288C41.2729 16.9801 41.4424 17.2123 41.4424 17.5253C41.4424 18.1201 40.8476 18.4175 39.6581 18.4175C39.032 18.4175 38.3955 18.3184 37.7485 18.1201C37.1015 17.9218 36.5329 17.661 36.0424 17.3375L35.025 19.6227C35.5468 19.9879 36.225 20.2801 37.0598 20.4992C37.8946 20.7184 38.7555 20.8279 39.6424 20.8279ZM49.7746 20.7497C50.6929 20.7497 51.5172 20.5618 52.2476 20.1862C52.9781 19.8105 53.5468 19.2888 53.9537 18.621C54.3607 17.9531 54.5642 17.1966 54.5642 16.3514C54.5642 15.5062 54.3607 14.7523 53.9537 14.0897C53.5468 13.427 52.9781 12.9105 52.2476 12.5401C51.5172 12.1697 50.6929 11.9844 49.7746 11.9844C48.8563 11.9844 48.0346 12.1697 47.3094 12.5401C46.5842 12.9105 46.0155 13.4297 45.6033 14.0975C45.1911 14.7653 44.985 15.5166 44.985 16.3514C44.985 17.1966 45.1911 17.9531 45.6033 18.621C46.0155 19.2888 46.5868 19.8105 47.3172 20.1862C48.0476 20.5618 48.8668 20.7497 49.7746 20.7497ZM49.7746 18.3862C49.2529 18.3862 48.825 18.2062 48.4911 17.8462C48.1572 17.4862 47.9902 16.9879 47.9902 16.3514C47.9902 15.7253 48.1572 15.2349 48.4911 14.8801C48.825 14.5253 49.2529 14.3479 49.7746 14.3479C50.2963 14.3479 50.7242 14.5253 51.0581 14.8801C51.392 15.2349 51.5589 15.7253 51.5589 16.3514C51.5589 16.9879 51.392 17.4862 51.0581 17.8462C50.7242 18.2062 50.2963 18.3862 49.7746 18.3862ZM58.6546 20.6088V8.99487H55.6807V20.6088H58.6546ZM62.9955 20.7497C64.2372 20.7497 65.072 20.3375 65.4998 19.5131V20.6088H68.2702V15.8975C68.2702 14.5723 67.8998 13.5888 67.1589 12.947C66.4181 12.3053 65.3433 11.9844 63.9346 11.9844C63.2563 11.9844 62.5807 12.0705 61.9076 12.2427C61.2346 12.4149 60.6633 12.6575 60.1937 12.9705L61.1955 14.9897C61.4876 14.7601 61.8424 14.5801 62.2598 14.4497C62.6772 14.3192 63.0894 14.254 63.4963 14.254C64.6442 14.254 65.2442 14.7027 65.2963 15.6001H63.6059C62.3224 15.6001 61.3729 15.8218 60.7572 16.2653C60.1415 16.7088 59.8337 17.3323 59.8337 18.1357C59.8337 18.6366 59.9563 19.0827 60.2015 19.474C60.4468 19.8653 60.8094 20.1757 61.2894 20.4053C61.7694 20.6349 62.3381 20.7497 62.9955 20.7497ZM63.825 18.8714C63.4807 18.8714 63.2094 18.7931 63.0111 18.6366C62.8128 18.4801 62.7137 18.2714 62.7137 18.0105C62.7137 17.4366 63.1468 17.1497 64.0129 17.1497H65.2963V17.8853C65.1815 18.2088 64.9937 18.454 64.7329 18.621C64.472 18.7879 64.1694 18.8714 63.825 18.8714ZM72.8615 20.6088V16.5079C72.8615 15.8401 73.0155 15.3392 73.3233 15.0053C73.6311 14.6714 74.0407 14.5044 74.552 14.5044C75.4807 14.5044 75.945 15.0836 75.945 16.2418V20.6088H78.9189V15.7566C78.9189 14.494 78.5981 13.5497 77.9563 12.9236C77.3146 12.2975 76.4668 11.9844 75.4128 11.9844C74.8702 11.9844 74.3694 12.0757 73.9102 12.2584C73.4511 12.441 73.0546 12.7044 72.7207 13.0488V12.1253H69.8876V20.6088H72.8615ZM83.1972 20.7497C84.4389 20.7497 85.2737 20.3375 85.7015 19.5131V20.6088H88.472V15.8975C88.472 14.5723 88.1015 13.5888 87.3607 12.947C86.6198 12.3053 85.545 11.9844 84.1363 11.9844C83.4581 11.9844 82.7824 12.0705 82.1094 12.2427C81.4363 12.4149 80.865 12.6575 80.3955 12.9705L81.3972 14.9897C81.6894 14.7601 82.0442 14.5801 82.4615 14.4497C82.8789 14.3192 83.2911 14.254 83.6981 14.254C84.8459 14.254 85.4459 14.7027 85.4981 15.6001H83.8076C82.5242 15.6001 81.5746 15.8218 80.9589 16.2653C80.3433 16.7088 80.0355 17.3323 80.0355 18.1357C80.0355 18.6366 80.1581 19.0827 80.4033 19.474C80.6485 19.8653 81.0111 20.1757 81.4911 20.4053C81.9711 20.6349 82.5398 20.7497 83.1972 20.7497ZM84.0268 18.8714C83.6824 18.8714 83.4111 18.7931 83.2129 18.6366C83.0146 18.4801 82.9155 18.2714 82.9155 18.0105C82.9155 17.4366 83.3485 17.1497 84.2146 17.1497H85.4981V17.8853C85.3833 18.2088 85.1955 18.454 84.9346 18.621C84.6737 18.7879 84.3711 18.8714 84.0268 18.8714ZM100.441 20.6088C101.902 20.6088 103.018 20.3479 103.79 19.8262C104.562 19.3044 104.948 18.5636 104.948 17.6036C104.948 16.9462 104.771 16.3853 104.416 15.921C104.062 15.4566 103.571 15.1149 102.945 14.8957C103.415 14.6557 103.777 14.3297 104.033 13.9175C104.289 13.5053 104.416 13.0384 104.416 12.5166C104.416 11.6401 104.051 10.9436 103.321 10.427C102.59 9.91053 101.526 9.65226 100.128 9.65226H94.5242V20.6088H100.441ZM99.7207 14.0036H97.592V11.8905H99.7207C100.764 11.8905 101.286 12.2401 101.286 12.9392C101.286 13.6488 100.764 14.0036 99.7207 14.0036ZM100.19 18.3705H97.592V16.1479H100.19C101.275 16.1479 101.818 16.5184 101.818 17.2592C101.818 18.0001 101.275 18.3705 100.19 18.3705ZM110.604 20.7497C112.19 20.7497 113.395 20.2905 114.22 19.3723L112.655 17.7444C112.352 18.0053 112.052 18.1931 111.755 18.3079C111.457 18.4227 111.105 18.4801 110.698 18.4801C110.155 18.4801 109.704 18.3627 109.344 18.1279C108.984 17.8931 108.742 17.5566 108.616 17.1184H114.783C114.815 16.6488 114.83 16.4036 114.83 16.3827C114.83 15.4749 114.629 14.6897 114.228 14.027C113.826 13.3644 113.281 12.8584 112.592 12.5088C111.903 12.1592 111.136 11.9844 110.291 11.9844C109.404 11.9844 108.606 12.1723 107.896 12.5479C107.187 12.9236 106.631 13.4427 106.229 14.1053C105.828 14.7679 105.627 15.5166 105.627 16.3514C105.627 17.1966 105.833 17.9531 106.245 18.621C106.657 19.2888 107.239 19.8105 107.99 20.1862C108.742 20.5618 109.613 20.7497 110.604 20.7497ZM112.044 15.5531H108.569C108.653 15.1044 108.848 14.7497 109.156 14.4888C109.464 14.2279 109.848 14.0975 110.307 14.0975C110.766 14.0975 111.149 14.2279 111.457 14.4888C111.765 14.7497 111.961 15.1044 112.044 15.5531ZM118.389 20.7497C119.63 20.7497 120.465 20.3375 120.893 19.5131V20.6088H123.663V15.8975C123.663 14.5723 123.293 13.5888 122.552 12.947C121.811 12.3053 120.736 11.9844 119.328 11.9844C118.649 11.9844 117.974 12.0705 117.301 12.2427C116.628 12.4149 116.056 12.6575 115.587 12.9705L116.589 14.9897C116.881 14.7601 117.235 14.5801 117.653 14.4497C118.07 14.3192 118.482 14.254 118.889 14.254C120.037 14.254 120.637 14.7027 120.689 15.6001H118.999C117.715 15.6001 116.766 15.8218 116.15 16.2653C115.535 16.7088 115.227 17.3323 115.227 18.1357C115.227 18.6366 115.349 19.0827 115.595 19.474C115.84 19.8653 116.202 20.1757 116.682 20.4053C117.162 20.6349 117.731 20.7497 118.389 20.7497ZM119.218 18.8714C118.874 18.8714 118.602 18.7931 118.404 18.6366C118.206 18.4801 118.107 18.2714 118.107 18.0105C118.107 17.4366 118.54 17.1497 119.406 17.1497H120.689V17.8853C120.575 18.2088 120.387 18.454 120.126 18.621C119.865 18.7879 119.562 18.8714 119.218 18.8714ZM129.742 20.7497C130.702 20.7497 131.531 20.5436 132.23 20.1314C132.929 19.7192 133.425 19.1479 133.717 18.4175L131.416 17.2436C131.03 18.0053 130.467 18.3862 129.726 18.3862C129.194 18.3862 128.753 18.2062 128.403 17.8462C128.054 17.4862 127.879 16.9879 127.879 16.3514C127.879 15.7253 128.054 15.2349 128.403 14.8801C128.753 14.5253 129.194 14.3479 129.726 14.3479C130.467 14.3479 131.03 14.7288 131.416 15.4905L133.717 14.3166C133.425 13.5862 132.929 13.0149 132.23 12.6027C131.531 12.1905 130.702 11.9844 129.742 11.9844C128.802 11.9844 127.962 12.1697 127.222 12.5401C126.481 12.9105 125.904 13.427 125.492 14.0897C125.08 14.7523 124.874 15.5062 124.874 16.3514C124.874 17.1966 125.08 17.9531 125.492 18.621C125.904 19.2888 126.481 19.8105 127.222 20.1862C127.962 20.5618 128.802 20.7497 129.742 20.7497ZM137.526 20.6088V16.5079C137.526 15.8401 137.68 15.3392 137.988 15.0053C138.295 14.6714 138.705 14.5044 139.216 14.5044C140.145 14.5044 140.609 15.0836 140.609 16.2418V20.6088H143.583V15.7566C143.583 14.494 143.262 13.5497 142.621 12.9236C141.979 12.2975 141.131 11.9844 140.077 11.9844C139.576 11.9844 139.107 12.0627 138.668 12.2192C138.23 12.3757 137.849 12.6053 137.526 12.9079V8.99487H134.552V20.6088H137.526Z" fill="white"/>
<path fill-rule="evenodd" clip-rule="evenodd" d="M14.8703 2.60913C22.5062 2.60913 28.6964 8.79928 28.6964 16.4352C28.6964 16.7839 28.634 17.4159 28.5093 18.3313C28.4741 18.5898 28.2533 18.7826 27.9924 18.7826L23.8703 18.783C23.6542 18.783 23.479 18.9582 23.479 19.1743C23.479 19.3777 23.6342 19.5449 23.8326 19.5639L23.8703 19.5657L27.9244 19.5652C28.0934 19.5651 28.2304 19.7021 28.2304 19.8711C28.2304 19.8922 28.2282 19.9132 28.2239 19.9339C28.1732 20.1755 27.9601 20.3485 27.7133 20.3485H2.0273C1.81098 20.3485 1.63562 20.1732 1.63562 19.9568C1.63562 19.7405 1.81098 19.5652 2.0273 19.5652C2.02731 19.5652 2.02732 19.5652 2.02733 19.5652L7.69636 19.5657C7.91248 19.5657 8.08767 19.3905 8.08767 19.1743C8.08767 18.9709 7.93248 18.8038 7.73405 18.7848L7.69636 18.783L1.69059 18.7826C1.46252 18.7826 1.26839 18.6165 1.23296 18.3912C1.20391 18.2065 1.33014 18.0332 1.51489 18.0041C1.53231 18.0014 1.54991 18 1.56755 18L3.78332 18.0004C3.99943 18.0004 4.17462 17.8252 4.17462 17.6091C4.17462 17.4057 4.01944 17.2386 3.82101 17.2196L3.78332 17.2178L1.57339 17.2176C1.29454 17.2176 1.065 16.9983 1.05225 16.7197C1.04688 16.6024 1.04419 16.5076 1.04419 16.4352C1.04419 8.79928 7.23434 2.60913 14.8703 2.60913ZM26.479 17.2178H23.6094C23.3933 17.2178 23.2181 17.393 23.2181 17.6091C23.2181 17.8125 23.3733 17.9797 23.5717 17.9986L23.6094 18.0004H26.479C26.6951 18.0004 26.8703 17.8252 26.8703 17.6091C26.8703 17.4057 26.7151 17.2386 26.5167 17.2196L26.479 17.2178Z" fill="url(#paint0_linear)"/>
<path fill-rule="evenodd" clip-rule="evenodd" d="M17.8708 25.8265C18.0869 25.8265 18.2621 26.0017 18.2621 26.2178C18.2621 26.4339 18.0869 26.6091 17.8708 26.6091H7.69687C7.48076 26.6091 7.30556 26.4339 7.30556 26.2178C7.30556 26.0017 7.48076 25.8265 7.69687 25.8265H17.8708ZM25.6969 24.2613C25.913 24.2613 26.0882 24.4365 26.0882 24.6526C26.0882 24.8687 25.913 25.0439 25.6969 25.0439H20.7403C20.5242 25.0439 20.349 24.8687 20.349 24.6526C20.349 24.4365 20.5242 24.2613 20.7403 24.2613H25.6969ZM17.0882 24.2613C17.3043 24.2613 17.4795 24.4365 17.4795 24.6526C17.4795 24.8687 17.3043 25.0439 17.0882 25.0439H3.52295C3.30684 25.0439 3.13165 24.8687 3.13165 24.6526C3.13165 24.4365 3.30684 24.2613 3.52295 24.2613H17.0882ZM5.60991 22.6961C5.82602 22.6961 6.00122 22.8713 6.00122 23.0874C6.00122 23.3035 5.82602 23.4787 5.60991 23.4787H0.653389C0.437278 23.4787 0.262085 23.3035 0.262085 23.0874C0.262085 22.8713 0.437278 22.6961 0.653389 22.6961H5.60991ZM18.6534 22.6961C18.8695 22.6961 19.0447 22.8713 19.0447 23.0874C19.0447 23.3035 18.8695 23.4787 18.6534 23.4787H10.0447C9.82858 23.4787 9.65339 23.3035 9.65339 23.0874C9.65339 22.8713 9.82858 22.6961 10.0447 22.6961H18.6534ZM28.5664 22.6961C28.7825 22.6961 28.9577 22.8713 28.9577 23.0874C28.9577 23.3035 28.7825 23.4787 28.5664 23.4787H23.6099C23.3938 23.4787 23.2186 23.3035 23.2186 23.0874C23.2186 22.8713 23.3938 22.6961 23.6099 22.6961H28.5664ZM8.47948 22.6961C8.69559 22.6961 8.87078 22.8713 8.87078 23.0874C8.87078 23.3035 8.69559 23.4787 8.47948 23.4787H7.17513C6.95902 23.4787 6.78382 23.3035 6.78382 23.0874C6.78382 22.8713 6.95902 22.6961 7.17513 22.6961H8.47948ZM21.7838 22.6961C21.9999 22.6961 22.1751 22.8713 22.1751 23.0874C22.1751 23.3035 21.9999 23.4787 21.7838 23.4787H20.4795C20.2634 23.4787 20.0882 23.3035 20.0882 23.0874C20.0882 22.8713 20.2634 22.6961 20.4795 22.6961H21.7838ZM27.2621 21.1309C27.4782 21.1309 27.6534 21.3061 27.6534 21.5222C27.6534 21.7383 27.4782 21.9135 27.2621 21.9135H1.95774C1.74163 21.9135 1.56643 21.7383 1.56643 21.5222C1.56643 21.3061 1.74163 21.1309 1.95774 21.1309H27.2621Z" fill="url(#paint1_linear)"/>
<path d="M18.9141 27.3916H12.1315C11.9154 27.3916 11.7402 27.5668 11.7402 27.7829C11.7402 27.999 11.9154 28.1742 12.1315 28.1742H18.9141C19.1303 28.1742 19.3055 27.999 19.3055 27.7829C19.3055 27.5668 19.1303 27.3916 18.9141 27.3916Z" fill="url(#paint2_linear)"/>
<path d="M16.3054 28.9573H13.6967C13.4806 28.9573 13.3054 29.1325 13.3054 29.3486C13.3054 29.5647 13.4806 29.7399 13.6967 29.7399H16.3054C16.5215 29.7399 16.6967 29.5647 16.6967 29.3486C16.6967 29.1325 16.5215 28.9573 16.3054 28.9573Z" fill="url(#paint3_linear)"/>
<path d="M36.4526 26.1587C36.7216 26.1587 36.94 26.1187 37.1079 26.0387C37.2758 25.9586 37.3986 25.8502 37.4764 25.7135C37.5542 25.5768 37.5931 25.4228 37.5931 25.2516C37.5931 25.0715 37.5576 24.9192 37.4864 24.7947C37.4153 24.6702 37.3269 24.5746 37.2213 24.5079C37.1157 24.4412 37.0106 24.4045 36.9061 24.3979V24.3645C37.004 24.3378 37.0948 24.2967 37.1788 24.2411C37.2627 24.1855 37.3305 24.1099 37.3822 24.0143C37.4339 23.9187 37.4597 23.7976 37.4597 23.6508C37.4597 23.4841 37.4219 23.3321 37.3463 23.1948C37.2708 23.0575 37.1557 22.948 37.0012 22.8663C36.8467 22.7846 36.6504 22.7437 36.4126 22.7437H35.2186V26.1587H36.4526ZM36.3992 24.2445H35.6322V23.1106H36.4126C36.6393 23.1106 36.805 23.1631 36.9095 23.2681C37.014 23.3732 37.0662 23.5008 37.0662 23.6508C37.0662 23.7709 37.0365 23.8754 36.977 23.9643C36.9175 24.0532 36.8375 24.1222 36.7369 24.1711C36.6363 24.22 36.5237 24.2445 36.3992 24.2445ZM36.4526 25.7919H35.6322V24.6046H36.4726C36.6215 24.6046 36.7505 24.6344 36.8594 24.6938C36.9684 24.7533 37.0523 24.8322 37.1112 24.9306C37.1701 25.029 37.1996 25.136 37.1996 25.2516C37.1996 25.4017 37.1426 25.5293 37.0287 25.6343C36.9147 25.7394 36.7227 25.7919 36.4526 25.7919ZM39.5727 26.1587V24.7514L40.8066 22.7437H40.3331L39.3859 24.3378H39.3459L38.3988 22.7437H37.9252L39.1592 24.7514V26.1587H39.5727ZM43.6318 26.2188C43.8942 26.2188 44.1174 26.1748 44.3013 26.087C44.4853 25.9992 44.6254 25.8808 44.7216 25.7319C44.8177 25.5829 44.8658 25.4161 44.8658 25.2316C44.8658 25.0715 44.833 24.9365 44.7674 24.8264C44.7018 24.7164 44.6187 24.626 44.5181 24.5554C44.4175 24.4848 44.3125 24.429 44.203 24.3879C44.0935 24.3467 43.9943 24.3145 43.9053 24.2911L43.5585 24.1978C43.4951 24.1811 43.4256 24.1591 43.35 24.1319C43.2745 24.1047 43.2022 24.0696 43.1333 24.0268C43.0643 23.984 43.0079 23.9301 42.964 23.8651C42.9201 23.8001 42.8982 23.722 42.8982 23.6308C42.8982 23.5219 42.9296 23.4246 42.9924 23.339C43.0552 23.2534 43.143 23.1862 43.2558 23.1372C43.3687 23.0883 43.5007 23.0639 43.6519 23.0639C43.8586 23.0639 44.0332 23.1106 44.1755 23.2039C44.3177 23.2973 44.3989 23.4285 44.4189 23.5975H44.8191C44.8135 23.4252 44.7605 23.2712 44.6599 23.1356C44.5593 22.9999 44.4234 22.893 44.2522 22.8146C44.081 22.7362 43.8853 22.697 43.6652 22.697C43.4473 22.697 43.2503 22.7368 43.0741 22.8162C42.8979 22.8957 42.7578 23.0069 42.6539 23.1497C42.5499 23.2926 42.498 23.4596 42.498 23.6508C42.498 23.8809 42.5758 24.0671 42.7314 24.2094C42.887 24.3517 43.0983 24.4612 43.3651 24.5379L43.7853 24.658C43.9053 24.6913 44.017 24.7302 44.1204 24.7747C44.2238 24.8192 44.3072 24.877 44.3705 24.9481C44.4339 25.0193 44.4656 25.1115 44.4656 25.2249C44.4656 25.3494 44.4289 25.4581 44.3555 25.5509C44.2822 25.6438 44.1827 25.716 44.0571 25.7677C43.9314 25.8194 43.7897 25.8452 43.6318 25.8452C43.4962 25.8452 43.3698 25.825 43.2525 25.7844C43.1352 25.7438 43.0385 25.6816 42.9624 25.5976C42.8862 25.5137 42.8426 25.4072 42.8315 25.2783H42.4046C42.4179 25.4651 42.4754 25.629 42.5772 25.7702C42.6789 25.9114 42.8189 26.0214 42.9974 26.1004C43.1758 26.1793 43.3873 26.2188 43.6318 26.2188ZM46.792 26.1587V23.1106H47.8659V22.7437H45.3046V23.1106H46.3785V26.1587H46.792ZM48.1913 26.1587L48.5344 25.1917H49.9154L50.2589 26.1587H50.6925L49.4385 22.7437H49.0117L47.7577 26.1587H48.1913ZM49.7853 24.8249H48.6646L49.2118 23.284H49.2384L49.7853 24.8249ZM51.5848 26.1587V25.0515L52.0117 24.5713L53.199 26.1587H53.6992L52.2652 24.2845L53.6992 22.7437H53.159L51.6249 24.4379H51.5848V22.7437H51.1713V26.1587H51.5848ZM54.5916 26.1587V22.7437H54.178V26.1587H54.5916ZM55.7774 26.1587V23.4774H55.8108L57.6717 26.1587H58.0719V22.7437H57.665V25.4317H57.6317L55.7641 22.7437H55.3639V26.1587H55.7774ZM60.2315 26.2054C60.5028 26.2054 60.7432 26.1484 60.9527 26.0345C61.1623 25.9206 61.3268 25.7596 61.4463 25.5518C61.5658 25.3439 61.6255 25.0993 61.6255 24.8181V24.4512H60.3249V24.8181L61.2247 24.8181L61.2234 24.8685C61.2155 25.0201 61.184 25.1562 61.1289 25.2768L61.0994 25.3358C61.0155 25.4898 60.8988 25.6087 60.7493 25.6927C60.5998 25.7766 60.4272 25.8186 60.2315 25.8186C60.0203 25.8186 59.8302 25.7663 59.6612 25.6618C59.4923 25.5573 59.3583 25.4034 59.2594 25.1999C59.1604 24.9965 59.111 24.7469 59.111 24.4512C59.111 24.1555 59.1599 23.906 59.2577 23.7025C59.3555 23.4991 59.4873 23.3451 59.6529 23.2406C59.8185 23.1361 60.0025 23.0839 60.2048 23.0839C60.3282 23.0839 60.4416 23.1006 60.545 23.1339C60.6484 23.1673 60.7409 23.2156 60.8226 23.279C60.9043 23.3423 60.9749 23.4188 61.0344 23.5083C61.0939 23.5977 61.142 23.6986 61.1786 23.8109H61.6055C61.5744 23.6453 61.5177 23.4944 61.4354 23.3582C61.3532 23.222 61.2506 23.1047 61.1278 23.0063C61.0049 22.908 60.8654 22.8318 60.7092 22.7779C60.5531 22.724 60.3849 22.697 60.2048 22.697C59.9858 22.697 59.7852 22.7376 59.6029 22.8187C59.4206 22.8999 59.2627 23.0166 59.1293 23.1689C58.9959 23.3212 58.8928 23.5055 58.82 23.7217C58.7472 23.9379 58.7108 24.1811 58.7108 24.4512C58.7108 24.8114 58.7744 25.1227 58.9017 25.385C59.029 25.6474 59.2068 25.8497 59.4353 25.992C59.6637 26.1343 59.9291 26.2054 60.2315 26.2054ZM63.9572 26.1587V24.6313H65.4379V24.2645H63.9572V23.1106H65.5913V22.7437H63.5436V26.1587H63.9572ZM65.9567 26.1587L66.2999 25.1917H67.6809L68.0244 26.1587H68.458L67.204 22.7437H66.7771L65.5232 26.1587H65.9567ZM67.5507 24.8249H66.43L66.9772 23.284H67.0039L67.5507 24.8249ZM70.1507 26.2054C70.323 26.2054 70.4851 26.1804 70.6368 26.1304C70.7885 26.0804 70.9256 26.0073 71.0478 25.9111C71.1701 25.8149 71.2724 25.6979 71.3547 25.5601C71.4369 25.4223 71.4936 25.2661 71.5247 25.0915H71.1112C71.0867 25.2094 71.0442 25.3136 70.9836 25.4042C70.923 25.4948 70.8497 25.5709 70.7635 25.6326C70.6774 25.6943 70.582 25.7407 70.4776 25.7719C70.3731 25.803 70.2641 25.8186 70.1507 25.8186C69.944 25.8186 69.7569 25.7663 69.5896 25.6618C69.4223 25.5573 69.2895 25.4034 69.1911 25.1999C69.0927 24.9965 69.0435 24.7469 69.0435 24.4512C69.0435 24.1555 69.0927 23.906 69.1911 23.7025C69.2895 23.4991 69.4223 23.3451 69.5896 23.2406C69.7569 23.1361 69.944 23.0839 70.1507 23.0839C70.2641 23.0839 70.3731 23.0994 70.4776 23.1306C70.582 23.1617 70.6774 23.2081 70.7635 23.2698C70.8497 23.3315 70.923 23.4074 70.9836 23.4974C71.0442 23.5875 71.0867 23.692 71.1112 23.8109H71.5247C71.4936 23.6353 71.4369 23.4788 71.3547 23.3415C71.2724 23.2042 71.1701 23.0875 71.0478 22.9913C70.9256 22.8952 70.7885 22.8221 70.6368 22.7721C70.4851 22.722 70.323 22.697 70.1507 22.697C69.8595 22.697 69.6005 22.7682 69.3737 22.9105C69.1469 23.0528 68.9685 23.2551 68.8384 23.5174C68.7083 23.7798 68.6433 24.091 68.6433 24.4512C68.6433 24.8114 68.7083 25.1227 68.8384 25.385C68.9685 25.6474 69.1469 25.8497 69.3737 25.992C69.6005 26.1343 69.8595 26.2054 70.1507 26.2054ZM72.5505 26.1587V22.7437H72.1369V26.1587H72.5505ZM75.3238 26.1587V25.7919H73.7363V22.7437H73.3228V26.1587H75.3238ZM76.3228 26.1587V22.7437H75.9093V26.1587H76.3228ZM78.3958 26.1587V23.1106H79.4696V22.7437H76.9084V23.1106H77.9822V26.1587H78.3958ZM80.4687 26.1587V22.7437H80.0552V26.1587H80.4687ZM83.3287 26.1587V25.7919H81.6545V24.6313H83.1953V24.2645H81.6545V23.1106H83.302V22.7437H81.241V26.1587H83.3287ZM85.0748 26.2188C85.3372 26.2188 85.5603 26.1748 85.7443 26.087C85.9283 25.9992 86.0683 25.8808 86.1645 25.7319C86.2607 25.5829 86.3087 25.4161 86.3087 25.2316C86.3087 25.0715 86.276 24.9365 86.2104 24.8264C86.1448 24.7164 86.0617 24.626 85.9611 24.5554C85.8605 24.4848 85.7554 24.429 85.6459 24.3879C85.5364 24.3467 85.4372 24.3145 85.3483 24.2911L85.0014 24.1978C84.9381 24.1811 84.8686 24.1591 84.793 24.1319C84.7174 24.1047 84.6451 24.0696 84.5762 24.0268C84.5073 23.984 84.4509 23.9301 84.407 23.8651C84.3631 23.8001 84.3411 23.722 84.3411 23.6308C84.3411 23.5219 84.3725 23.4246 84.4353 23.339C84.4981 23.2534 84.5859 23.1862 84.6988 23.1372C84.8116 23.0883 84.9436 23.0639 85.0948 23.0639C85.3016 23.0639 85.4761 23.1106 85.6184 23.2039C85.7607 23.2973 85.8419 23.4285 85.8619 23.5975H86.2621C86.2565 23.4252 86.2034 23.2712 86.1028 23.1356C86.0022 22.9999 85.8663 22.893 85.6951 22.8146C85.5239 22.7362 85.3283 22.697 85.1082 22.697C84.8903 22.697 84.6932 22.7368 84.517 22.8162C84.3408 22.8957 84.2008 23.0069 84.0968 23.1497C83.9929 23.2926 83.9409 23.4596 83.9409 23.6508C83.9409 23.8809 84.0187 24.0671 84.1744 24.2094C84.33 24.3517 84.5412 24.4612 84.808 24.5379L85.2282 24.658C85.3483 24.6913 85.46 24.7302 85.5634 24.7747C85.6668 24.8192 85.7501 24.877 85.8135 24.9481C85.8769 25.0193 85.9086 25.1115 85.9086 25.2249C85.9086 25.3494 85.8719 25.4581 85.7985 25.5509C85.7251 25.6438 85.6256 25.716 85.5 25.7677C85.3744 25.8194 85.2327 25.8452 85.0748 25.8452C84.9392 25.8452 84.8127 25.825 84.6954 25.7844C84.5782 25.7438 84.4815 25.6816 84.4053 25.5976C84.3292 25.5137 84.2855 25.4072 84.2744 25.2783H83.8475C83.8609 25.4651 83.9184 25.629 84.0201 25.7702C84.1218 25.9114 84.2619 26.0214 84.4403 26.1004C84.6187 26.1793 84.8302 26.2188 85.0748 26.2188Z" fill="#6BF5E0"/>
<path fill-rule="evenodd" clip-rule="evenodd" d="M91.9591 22.7633C92.0282 22.8325 92.0282 22.9447 91.9591 23.0138L90.581 24.3916L91.9591 25.7696C92.0282 25.8388 92.0282 25.9509 91.9591 26.0201C91.8899 26.0893 91.7777 26.0893 91.7085 26.0201L90.3306 24.6421L88.9528 26.0201C88.8836 26.0893 88.7715 26.0893 88.7023 26.0201C88.6331 25.9509 88.6331 25.8388 88.7023 25.7696L90.0801 24.3916L88.7023 23.0138C88.6331 22.9447 88.6331 22.8325 88.7023 22.7633C88.7715 22.6941 88.8836 22.6941 88.9528 22.7633L90.3306 24.1412L91.7085 22.7633C91.7777 22.6941 91.8899 22.6941 91.9591 22.7633Z" fill="white"/>
<path fill-rule="evenodd" clip-rule="evenodd" d="M98.966 22.696C99.1461 22.696 99.3142 22.723 99.4704 22.7769C99.6266 22.8308 99.7661 22.907 99.889 23.0054C100.012 23.1037 100.114 23.221 100.197 23.3572C100.279 23.4934 100.336 23.6443 100.367 23.8099H99.9398L99.9164 23.7439C99.8834 23.6578 99.8432 23.5789 99.7956 23.5073C99.7361 23.4178 99.6655 23.3414 99.5838 23.278C99.5021 23.2146 99.4096 23.1663 99.3062 23.1329C99.2028 23.0996 99.0894 23.0829 98.966 23.0829C98.7637 23.0829 98.5797 23.1352 98.4141 23.2396C98.2484 23.3441 98.1167 23.4981 98.0189 23.7015C97.921 23.905 97.8721 24.1545 97.8721 24.4502C97.8721 24.7459 97.9216 24.9955 98.0205 25.1989C98.1195 25.4024 98.2534 25.5563 98.4224 25.6608C98.5914 25.7653 98.7815 25.8176 98.9927 25.8176C99.1883 25.8176 99.3609 25.7756 99.5104 25.6917C99.66 25.6078 99.7767 25.4888 99.8606 25.3348L99.8901 25.2758C99.9452 25.1552 99.9767 25.0191 99.9845 24.8675L99.9858 24.8171L99.0861 24.8171V24.4502H100.387V24.8171L100.385 24.9004C100.374 25.1469 100.315 25.3637 100.207 25.5508C100.088 25.7587 99.9234 25.9196 99.7139 26.0335C99.5043 26.1475 99.2639 26.2044 98.9927 26.2044C98.6903 26.2044 98.4249 26.1333 98.1965 25.991C97.968 25.8487 97.7901 25.6464 97.6629 25.384C97.5356 25.1217 97.4719 24.8104 97.4719 24.4502C97.4719 24.1801 97.5083 23.9369 97.5811 23.7207C97.654 23.5045 97.7571 23.3202 97.8905 23.1679C98.0239 23.0156 98.1817 22.8989 98.364 22.8178C98.5463 22.7366 98.747 22.696 98.966 22.696ZM105.88 22.696C106.06 22.696 106.228 22.723 106.384 22.7769C106.541 22.8308 106.68 22.907 106.803 23.0054C106.926 23.1037 107.028 23.221 107.111 23.3572C107.193 23.4934 107.249 23.6443 107.281 23.8099H106.854L106.83 23.7439C106.797 23.6578 106.757 23.5789 106.709 23.5073C106.65 23.4178 106.579 23.3414 106.498 23.278C106.416 23.2146 106.323 23.1663 106.22 23.1329C106.117 23.0996 106.003 23.0829 105.88 23.0829C105.678 23.0829 105.494 23.1352 105.328 23.2396C105.162 23.3441 105.031 23.4981 104.933 23.7015C104.835 23.905 104.786 24.1545 104.786 24.4502C104.786 24.7459 104.835 24.9955 104.934 25.1989C105.033 25.4024 105.167 25.5563 105.336 25.6608C105.505 25.7653 105.695 25.8176 105.907 25.8176C106.102 25.8176 106.275 25.7756 106.424 25.6917C106.574 25.6078 106.691 25.4888 106.775 25.3348L106.804 25.2758C106.859 25.1552 106.891 25.0191 106.898 24.8675L106.9 24.8171L106 24.8171V24.4502H107.301V24.8171L107.299 24.9004C107.288 25.1469 107.229 25.3637 107.121 25.5508C107.002 25.7587 106.837 25.9196 106.628 26.0335C106.418 26.1475 106.178 26.2044 105.907 26.2044C105.604 26.2044 105.339 26.1333 105.11 25.991C104.882 25.8487 104.704 25.6464 104.577 25.384C104.449 25.1217 104.386 24.8104 104.386 24.4502C104.386 24.1801 104.422 23.9369 104.495 23.7207C104.568 23.5045 104.671 23.3202 104.804 23.1679C104.938 23.0156 105.096 22.8989 105.278 22.8178C105.46 22.7366 105.661 22.696 105.88 22.696ZM94.7854 22.7427L95.7992 25.6175H95.8392L96.853 22.7427H97.2866L96.0326 26.1578H95.6058L94.3518 22.7427H94.7854ZM101.439 22.7427L103.307 25.4307H103.34V22.7427H103.747V26.1578H103.347L101.486 23.4764H101.452V26.1578H101.039V22.7427H101.439Z" fill="#6BF5E0"/>
<defs>
<linearGradient id="paint0_linear" x1="14.8703" y1="0.317585" x2="14.8703" y2="24.8155" gradientUnits="userSpaceOnUse">
<stop stop-color="#F7C300"/>
<stop offset="1" stop-color="#FA006A"/>
</linearGradient>
<linearGradient id="paint1_linear" x1="14.6099" y1="-2.0096" x2="14.6099" y2="29.0476" gradientUnits="userSpaceOnUse">
<stop stop-color="#F7C300"/>
<stop offset="1" stop-color="#FA006A"/>
</linearGradient>
<linearGradient id="paint2_linear" x1="15.5228" y1="24.0858" x2="15.5228" y2="28.5226" gradientUnits="userSpaceOnUse">
<stop stop-color="#F7C300"/>
<stop offset="1" stop-color="#FA006A"/>
</linearGradient>
<linearGradient id="paint3_linear" x1="15.0011" y1="25.6515" x2="15.0011" y2="30.0882" gradientUnits="userSpaceOnUse">
<stop stop-color="#F7C300"/>
<stop offset="1" stop-color="#FA006A"/>
</linearGradient>
</defs>
</svg>
