<svg width="79" height="24" viewBox="0 0 79 24" fill="none" xmlns="http://www.w3.org/2000/svg">
<g clip-path="url(#clip0)">
<path d="M10.5949 19.7618C6.94809 19.7618 3.99121 16.8049 3.99121 13.1581C3.99121 9.60987 9.95425 3.35114 10.2007 3.10473L10.4963 2.75977L10.792 3.10473C11.0384 3.35114 17.1493 9.60987 17.1493 13.1581C17.1986 16.8049 14.2417 19.7618 10.5949 19.7618ZM10.5456 4.04108C10.0035 4.63246 8.91934 5.81521 7.83515 7.29365C5.91318 9.85627 4.87827 11.8768 4.87827 13.1581C4.87827 16.3121 7.4409 18.8748 10.5949 18.8748C13.7489 18.8748 16.3115 16.3121 16.3115 13.1581C16.3115 11.8768 15.2766 9.85627 13.3054 7.29365C12.2212 5.86449 11.0877 4.63246 10.5456 4.04108Z" fill="url(#paint0_linear)"/>
<path d="M10.5958 21.8809C5.76627 21.8809 1.87305 17.9877 1.87305 13.1581C1.87305 8.47639 8.42746 1.92198 8.72315 1.62629C8.92027 1.47845 9.16668 1.47845 9.36381 1.62629C9.51165 1.82341 9.51165 2.06982 9.36381 2.26695C9.26524 2.31623 2.76011 8.82136 2.76011 13.1581C2.76011 17.4949 6.25908 20.9938 10.5958 20.9938C14.9326 20.9938 18.4316 17.4949 18.4316 13.1581C18.4316 11.384 17.2981 8.91992 15.1297 6.06161C13.4542 3.84395 11.7786 2.16838 11.7786 2.16838C11.5815 2.02054 11.5815 1.72485 11.7786 1.52773C11.9264 1.3306 12.2221 1.3306 12.4192 1.52773C12.7149 1.82341 19.3679 8.47639 19.3679 13.1581C19.3186 17.9877 15.4254 21.8809 10.5958 21.8809Z" fill="url(#paint1_linear)"/>
<path d="M10.5955 24.0001C4.78029 24.0001 0 19.2198 0 13.4046C0 10.9898 1.23203 8.03297 3.59754 4.58328C5.37166 2.06993 7.09651 0.24652 7.19507 0.147957C7.34292 -0.049168 7.6386 -0.049168 7.83573 0.147957C8.03285 0.295801 8.03285 0.591489 7.83573 0.788614C7.83573 0.788614 6.0616 2.61202 4.33676 5.12537C2.06982 8.37794 0.887064 11.2363 0.887064 13.4539C0.887064 18.8256 5.2731 23.1623 10.5955 23.1623C15.9179 23.1623 20.3039 18.727 20.3039 13.4046C20.3039 11.187 19.1212 8.32866 16.8542 5.07609C15.1294 2.61202 13.3552 0.788614 13.3552 0.739333C13.2074 0.542208 13.2074 0.295801 13.3552 0.0986759C13.5524 -0.049168 13.7988 -0.049168 13.9959 0.0986759C14.2423 0.443645 21.191 7.63872 21.191 13.4046C21.191 19.2198 16.46 24.0001 10.5955 24.0001Z" fill="url(#paint2_linear)"/>
<path d="M25.774 15.5235L27.8931 15.3264C28.041 16.0163 28.2874 16.5584 28.6816 16.9034C29.0759 17.2484 29.618 17.3962 30.2586 17.3962C30.9486 17.3962 31.4907 17.2484 31.8356 16.9527C32.1806 16.657 32.3777 16.312 32.3777 15.9178C32.3777 15.6714 32.2792 15.4249 32.1313 15.2771C31.9835 15.08 31.7371 14.9321 31.3428 14.8336C31.0964 14.735 30.5051 14.5872 29.618 14.3408C28.4352 14.0451 27.6467 13.7001 27.1539 13.2566C26.5133 12.6652 26.1683 11.926 26.1683 11.0882C26.1683 10.5461 26.3161 10.004 26.6118 9.56047C26.9075 9.11694 27.3511 8.72269 27.9424 8.47628C28.5338 8.22988 29.2237 8.08203 30.0615 8.08203C31.4414 8.08203 32.427 8.37772 33.117 8.9691C33.8069 9.56047 34.1519 10.349 34.2012 11.3346L32.0328 11.4332C31.9342 10.8911 31.7371 10.4968 31.4414 10.2504C31.1457 10.004 30.7022 9.85616 30.0615 9.85616C29.4209 9.85616 28.9281 10.004 28.5831 10.2504C28.3367 10.3983 28.2381 10.6447 28.2381 10.9403C28.2381 11.1868 28.3367 11.4332 28.5831 11.581C28.8788 11.8274 29.5194 12.0738 30.6036 12.3202C31.6878 12.5666 32.427 12.813 32.9691 13.1087C33.4619 13.3551 33.8562 13.7494 34.1519 14.1929C34.4476 14.6364 34.5954 15.2278 34.5954 15.9178C34.5954 16.5584 34.4476 17.1005 34.1026 17.6426C33.7576 18.1847 33.2648 18.579 32.6241 18.8254C31.9835 19.0718 31.195 19.2196 30.2586 19.2196C28.8788 19.2196 27.8439 18.9239 27.1046 18.2833C26.3654 17.6426 25.9219 16.7555 25.774 15.5235Z" fill="white"/>
<path d="M36.3691 19.0719V8.22998H44.3527V10.0534H38.5375V12.4682H43.9585V14.2916H38.5375V17.2485H44.5498V19.0719H36.3691Z" fill="white"/>
<path d="M46.4718 19.0719V8.22998H51.055C52.1884 8.22998 53.0262 8.32854 53.5683 8.52567C54.1104 8.72279 54.5047 9.06776 54.8003 9.56058C55.096 10.0534 55.2932 10.6448 55.2932 11.2854C55.2932 12.0739 55.0467 12.7639 54.5539 13.306C54.0611 13.8481 53.3712 14.1437 52.4348 14.2916C52.9277 14.5873 53.2726 14.883 53.6176 15.1786C53.9133 15.5236 54.3568 16.115 54.8496 16.9528L56.1802 19.0719H53.5683L51.9913 16.7064C51.4492 15.8686 51.055 15.3265 50.8578 15.1294C50.6607 14.9322 50.4143 14.7844 50.2172 14.6858C49.9708 14.5873 49.6258 14.5873 49.133 14.5873H48.6895V19.0719H46.4718ZM48.6402 12.8131H50.2665C51.3014 12.8131 51.942 12.7639 52.2377 12.6653C52.4841 12.5667 52.6812 12.4189 52.8291 12.2218C52.9769 12.0246 53.0262 11.729 53.0262 11.4333C53.0262 11.0883 52.9277 10.7926 52.7305 10.5462C52.5334 10.2998 52.287 10.2012 51.8927 10.1027C51.6956 10.1027 51.2028 10.0534 50.3157 10.0534H48.5909L48.6402 12.8131Z" fill="white"/>
<path d="M57.3137 8.22998H59.4821V14.0945C59.4821 15.0308 59.5314 15.6222 59.5807 15.9179C59.6792 16.3614 59.8763 16.7064 60.2706 17.0021C60.6156 17.2485 61.1084 17.3963 61.6998 17.3963C62.3404 17.3963 62.7839 17.2485 63.0796 17.0021C63.3753 16.7556 63.5724 16.46 63.671 16.0657C63.7203 15.7207 63.7696 15.0801 63.7696 14.2423V8.22998H65.938V13.8973C65.938 15.1786 65.8887 16.115 65.7408 16.6571C65.6423 17.1992 65.3959 17.6427 65.1002 18.037C64.8045 18.3819 64.3609 18.6776 63.8189 18.924C63.2768 19.1704 62.5868 19.269 61.749 19.269C60.7141 19.269 59.9256 19.1704 59.3835 18.924C58.8414 18.6776 58.4472 18.3819 58.1022 17.9877C57.8065 17.5934 57.6094 17.1992 57.5108 16.8049C57.363 16.1643 57.3137 15.2772 57.3137 14.0452V8.22998Z" fill="white"/>
<path d="M68.2047 19.0719V8.22998H71.4573L73.4285 15.5729L75.3505 8.22998H78.6031V19.0226H76.5825V10.5462L74.4634 19.0719H72.3443L70.2252 10.5462V19.0719H68.2047Z" fill="white"/>
</g>
<defs>
<linearGradient id="paint0_linear" x1="10.5706" y1="19.7618" x2="10.5706" y2="2.7782" gradientUnits="userSpaceOnUse">
<stop stop-color="#05AAC5"/>
<stop offset="1" stop-color="#71E0EC"/>
</linearGradient>
<linearGradient id="paint1_linear" x1="10.6205" y1="21.8809" x2="10.6205" y2="1.41482" gradientUnits="userSpaceOnUse">
<stop stop-color="#05AAC5"/>
<stop offset="1" stop-color="#71E0EC"/>
</linearGradient>
<linearGradient id="paint2_linear" x1="10.5955" y1="24.0001" x2="10.5955" y2="0.0120395" gradientUnits="userSpaceOnUse">
<stop stop-color="#05AAC5"/>
<stop offset="1" stop-color="#71E0EC"/>
</linearGradient>
<clipPath id="clip0">
<rect width="78.653" height="24" fill="white"/>
</clipPath>
</defs>
</svg>
