<svg width="80" height="80" viewBox="0 0 80 80" fill="none" xmlns="http://www.w3.org/2000/svg">
<path d="M49.163 6.51062L30.5164 6.61397C27.9197 6.6273 24.743 8.00062 22.913 9.84395L9.78972 22.9706C7.95972 24.814 6.65304 28.0806 6.66304 30.6773L6.7664 49.324C6.77973 51.9206 8.15304 55.0973 9.99638 56.9273C9.99638 56.9273 23.123 70.054 23.123 70.0506C24.9663 71.8806 28.233 73.1873 30.8297 73.1773L49.4763 73.074C52.073 73.0606 55.2497 71.6873 57.0797 69.844L70.2031 56.7173C72.0331 54.874 73.3397 51.6073 73.3297 49.0106L73.2263 30.364C73.213 27.7673 71.8397 24.5906 69.9964 22.7606L56.8697 9.6373C55.0264 7.8073 51.7597 6.50062 49.163 6.51062ZM29.9964 26.5106C30.8497 26.5106 31.7397 26.7973 32.393 27.4473L39.9964 35.0506L47.5997 27.4473C48.2531 26.7973 49.143 26.5106 49.9964 26.5106C50.8497 26.5106 51.7397 26.7973 52.393 27.4473C53.693 28.7506 53.693 30.9373 52.393 32.2406L44.7897 39.844L52.393 47.4473C53.693 48.7507 53.693 50.9373 52.393 52.2406C51.0897 53.5406 48.9031 53.5406 47.5997 52.2406L39.9964 44.6373L32.393 52.2406C31.0897 53.5406 28.9031 53.5406 27.5997 52.2406C26.2997 50.9373 26.2997 48.7507 27.5997 47.4473L35.2031 39.844L27.5997 32.2406C26.2997 30.9373 26.2997 28.7506 27.5997 27.4473C28.2531 26.7973 29.143 26.5106 29.9964 26.5106Z" fill="url(#paint0_linear_923_4449)"/>
<defs>
<linearGradient id="paint0_linear_923_4449" x1="6.66299" y1="6.51056" x2="83.1345" y2="20.8353" gradientUnits="userSpaceOnUse">
<stop stop-color="#DE0269"/>
<stop offset="1" stop-color="#FD499D"/>
</linearGradient>
</defs>
</svg>
