<svg width="28" height="28" viewBox="0 0 28 28" fill="none" xmlns="http://www.w3.org/2000/svg">
<path fill-rule="evenodd" clip-rule="evenodd" d="M14.3328 20.5431C13.8824 20.0824 13.8907 19.3437 14.3514 18.8933C14.8121 18.4428 15.5507 18.4511 16.0012 18.9118L18.667 21.6382V3.50016C18.667 2.85583 19.1893 2.3335 19.8337 2.3335C20.478 2.3335 21.0003 2.85583 21.0003 3.50016L21.0003 21.6382L23.6662 18.9118C24.1166 18.4511 24.8553 18.4428 25.316 18.8933C25.7767 19.3437 25.785 20.0824 25.3345 20.5431L20.6678 25.3158C20.4483 25.5403 20.1476 25.6668 19.8337 25.6668C19.5197 25.6668 19.219 25.5403 18.9995 25.3158L14.3328 20.5431ZM2.66615 7.45726C2.21569 7.91796 2.22399 8.65661 2.68469 9.10707C3.14539 9.55753 3.88404 9.54923 4.3345 9.08853L7.00032 6.36212V24.5002C7.00032 25.1445 7.52266 25.6668 8.16699 25.6668C8.81132 25.6668 9.33366 25.1445 9.33366 24.5002V6.36212L11.9995 9.08853C12.4499 9.54923 13.1886 9.55753 13.6493 9.10707C14.11 8.65661 14.1183 7.91796 13.6678 7.45726L9.00117 2.68453C8.78167 2.46004 8.48096 2.3335 8.16699 2.3335C7.85303 2.3335 7.55231 2.46004 7.33282 2.68453L2.66615 7.45726Z" fill="#FFFAF5"/>
</svg>
