<svg width="14" height="14" viewBox="0 0 14 14" fill="none" xmlns="http://www.w3.org/2000/svg">
<path fill-rule="evenodd" clip-rule="evenodd" d="M0.333313 5.66675L0.333313 11.0001C0.333313 12.4728 1.52722 13.6667 2.99998 13.6667L8.33331 13.6667C9.80607 13.6667 11 12.4728 11 11.0001C12.4727 11.0001 13.6666 9.80617 13.6666 8.33341L13.6666 6.00008L13.6666 3.00008C13.6666 1.52732 12.4727 0.333415 11 0.333416L5.66665 0.333416C4.19389 0.333416 2.99998 1.52732 2.99998 3.00008C1.52722 3.00008 0.333313 4.19399 0.333313 5.66675ZM4.33331 3.00008L8.33331 3.00008C9.80607 3.00008 11 4.19399 11 5.66675L11 9.66675C11.7364 9.66675 12.3333 9.06979 12.3333 8.33341L12.3333 6.00008L12.3333 3.00008C12.3333 2.2637 11.7364 1.66675 11 1.66675L5.66665 1.66675C4.93027 1.66675 4.33331 2.2637 4.33331 3.00008ZM2.99998 12.3334C2.2636 12.3334 1.66665 11.7365 1.66665 11.0001L1.66665 5.66675C1.66665 4.93037 2.2636 4.33341 2.99998 4.33341L8.33331 4.33341C9.06969 4.33341 9.66665 4.93037 9.66665 5.66675L9.66665 11.0001C9.66665 11.7365 9.06969 12.3334 8.33331 12.3334L2.99998 12.3334Z" fill="#FFFAF5"/>
</svg>
