<svg width="14" height="14" viewBox="0 0 14 14" fill="none" xmlns="http://www.w3.org/2000/svg">
<path fill-rule="evenodd" clip-rule="evenodd" d="M6.33337 10.9447V12.2921C3.92087 11.9912 2.00876 10.0791 1.70796 7.66659H3.05533C3.33632 9.34163 4.65835 10.6637 6.33337 10.9447ZM4.41737 7.66659C4.65853 8.6037 5.39628 9.34146 6.33337 9.58265V7.66659H4.41737ZM6.33337 6.33326H4.4174C4.65861 5.39622 5.39633 4.65852 6.33337 4.41734V6.33326ZM7.66671 7.66659V9.58265C8.6038 9.34146 9.34155 8.60369 9.58271 7.66659H7.66671ZM9.58268 6.33326H7.66671V4.41734C8.60376 4.65852 9.34147 5.39622 9.58268 6.33326ZM10.9447 7.66659C10.6638 9.34163 9.34173 10.6637 7.66671 10.9447V12.2921C10.0792 11.9912 11.9913 10.0791 12.2921 7.66659H10.9447ZM12.2921 6.33326H10.9447C10.6637 4.65829 9.34169 3.33631 7.66671 3.0553V1.70792C10.0792 2.00875 11.9912 3.92081 12.2921 6.33326ZM3.05536 6.33326H1.70798C2.00884 3.92081 3.92092 2.00875 6.33337 1.70792V3.0553C4.65839 3.33631 3.3364 4.65829 3.05536 6.33326ZM0.333374 7C0.333374 3.3181 3.31814 0.333328 7.00004 0.333328C10.6819 0.333328 13.6667 3.3181 13.6667 7C13.6667 10.6819 10.6819 13.6667 7.00004 13.6667C3.31814 13.6667 0.333374 10.6819 0.333374 7Z" fill="#FFFAF5"/>
</svg>
