<svg width="12" height="12" viewBox="0 0 12 12" fill="none" xmlns="http://www.w3.org/2000/svg">
<path fill-rule="evenodd" clip-rule="evenodd" d="M9.77127 2.22877C8.99022 1.44772 7.72389 1.44772 6.94284 2.22877L6.00003 3.17158C5.73968 3.43193 5.31757 3.43193 5.05722 3.17158C4.79687 2.91123 4.79687 2.48912 5.05722 2.22877L6.00003 1.28596C7.30178 -0.0157852 9.41233 -0.0157852 10.7141 1.28596C12.0158 2.58771 12.0158 4.69826 10.7141 6.00001L9.77127 6.94282C9.51092 7.20317 9.08881 7.20317 8.82846 6.94282C8.56811 6.68247 8.56811 6.26036 8.82846 6.00001L9.77127 5.0572C10.5523 4.27615 10.5523 3.00982 9.77127 2.22877ZM2.2288 9.77124C1.44775 8.99019 1.44775 7.72387 2.2288 6.94282L3.17161 6.00001C3.43196 5.73966 3.43196 5.31755 3.17161 5.0572C2.91126 4.79685 2.48915 4.79685 2.2288 5.0572L1.28599 6.00001C-0.0157589 7.30175 -0.0157587 9.4123 1.28599 10.7141C2.58774 12.0158 4.69829 12.0158 6.00003 10.7141L6.94284 9.77124C7.20319 9.51089 7.20319 9.08878 6.94284 8.82843C6.68249 8.56808 6.26038 8.56808 6.00003 8.82843L5.05722 9.77124C4.27618 10.5523 3.00985 10.5523 2.2288 9.77124ZM8.35706 4.58579C8.61741 4.32544 8.61741 3.90333 8.35706 3.64298C8.09671 3.38264 7.6746 3.38264 7.41425 3.64298L3.64301 7.41422C3.38266 7.67457 3.38266 8.09668 3.64301 8.35703C3.90336 8.61738 4.32547 8.61738 4.58582 8.35703L8.35706 4.58579Z" fill="#FFAB5C"/>
</svg>
