<svg width="14" height="14" viewBox="0 0 14 14" fill="none" xmlns="http://www.w3.org/2000/svg">
<path fill-rule="evenodd" clip-rule="evenodd" d="M7.00004 12.3333C4.05452 12.3333 1.66671 9.94551 1.66671 7C1.66671 4.05448 4.05452 1.66666 7.00004 1.66666C9.94556 1.66666 12.3334 4.05448 12.3334 7C12.3334 9.94551 9.94556 12.3333 7.00004 12.3333ZM0.333374 7C0.333374 3.3181 3.31814 0.333328 7.00004 0.333328C10.6819 0.333328 13.6667 3.3181 13.6667 7C13.6667 10.6819 10.6819 13.6667 7.00004 13.6667C3.31814 13.6667 0.333374 10.6819 0.333374 7ZM7.00004 9C5.89547 9 5.00004 8.10456 5.00004 7C5.00004 5.89543 5.89547 5 7.00004 5C8.10461 5 9.00004 5.89543 9.00004 7C9.00004 8.10456 8.10461 9 7.00004 9ZM3.66671 7C3.66671 5.15905 5.15909 3.66666 7.00004 3.66666C8.84099 3.66666 10.3334 5.15905 10.3334 7C10.3334 8.84094 8.84099 10.3333 7.00004 10.3333C5.15909 10.3333 3.66671 8.84094 3.66671 7Z" fill="#FFFAF5"/>
</svg>
