<svg width="18" height="14" viewBox="0 0 18 14" fill="none" xmlns="http://www.w3.org/2000/svg">
  <path fill-rule="evenodd" clip-rule="evenodd" d="M4.83335 11C4.83335 11.4602 5.20645 11.8333 5.66669 11.8333H14.8334C15.2936 11.8333 15.6667 11.4602 15.6667 11V5.16666C15.6667 4.70642 15.2936 4.33332 14.8334 4.33332V8.49999C14.8334 9.8807 13.7141 11 12.3334 11H4.83335ZM14.8334 2.66666C14.8334 1.28595 13.7141 0.166656 12.3334 0.166656H3.16669C1.78598 0.166656 0.666687 1.28594 0.666687 2.66666V8.49999C0.666687 9.8807 1.78598 11 3.16669 11C3.16669 12.3807 4.28598 13.5 5.66669 13.5H14.8334C16.2141 13.5 17.3334 12.3807 17.3334 11V5.16666C17.3334 3.78595 16.2141 2.66666 14.8334 2.66666ZM12.3334 9.33332C12.7936 9.33332 13.1667 8.96023 13.1667 8.49999L13.1667 2.66666C13.1667 2.20642 12.7936 1.83332 12.3334 1.83332L3.16669 1.83332C2.70645 1.83332 2.33335 2.20642 2.33335 2.66666L2.33335 8.49999C2.33335 8.96023 2.70645 9.33333 3.16669 9.33333L12.3334 9.33332ZM12.3334 7.66666C12.3334 7.20642 11.9603 6.83332 11.5 6.83332C11.0398 6.83332 10.6667 7.20642 10.6667 7.66666C10.6667 8.1269 11.0398 8.49999 11.5 8.49999C11.9603 8.49999 12.3334 8.12689 12.3334 7.66666ZM4.00002 2.66666C4.46026 2.66666 4.83335 3.03975 4.83335 3.49999C4.83335 3.96023 4.46026 4.33332 4.00002 4.33332C3.53978 4.33332 3.16669 3.96023 3.16669 3.49999C3.16669 3.03975 3.53978 2.66666 4.00002 2.66666ZM9.83335 5.58332C9.83335 4.66285 9.08716 3.91666 8.16669 3.91666C7.24621 3.91666 6.50002 4.66285 6.50002 5.58332C6.50002 6.5038 7.24621 7.24999 8.16669 7.24999C9.08716 7.24999 9.83335 6.5038 9.83335 5.58332Z" fill="#FFFAF5"/>
</svg>
