<svg width="146" height="25" viewBox="0 0 146 25" fill="none" xmlns="http://www.w3.org/2000/svg">
<path fill-rule="evenodd" clip-rule="evenodd" d="M21.4171 14.939C20.9811 15.2146 20.4677 15.2488 20.0774 15.0287C19.5817 14.7488 19.3091 14.0933 19.3091 13.1817V10.4543C19.3091 9.1372 18.7884 8.2 17.9177 7.94695C16.4421 7.51707 15.3323 9.32256 14.9152 10.0006L12.3128 14.2201V9.06281C12.2835 7.87622 11.8982 7.16646 11.1665 6.95244C10.6823 6.81098 9.95793 6.86768 9.25427 7.94451L3.42378 17.3067C2.64322 15.8249 2.23631 14.1748 2.23841 12.5C2.23841 6.86037 6.75793 2.27256 12.3128 2.27256C17.8677 2.27256 22.3866 6.86037 22.3866 12.5C22.3866 12.5098 22.389 12.5183 22.3896 12.5274C22.3896 12.5372 22.3878 12.5457 22.3884 12.5555C22.4409 13.6476 22.0872 14.5165 21.4171 14.9396V14.939ZM24.625 12.5006V12.5V12.472L24.6244 12.4439C24.5933 5.57561 19.0829 0 12.3122 0C5.52378 0 0 5.60732 0 12.5C0 19.3921 5.52378 25 12.3128 25C15.428 25 18.4012 23.8159 20.6835 21.6665C21.1372 21.2396 21.164 20.5207 20.7433 20.061C20.6443 19.9518 20.5244 19.8634 20.3908 19.8011C20.2572 19.7388 20.1126 19.7038 19.9653 19.6981C19.8179 19.6925 19.671 19.7162 19.533 19.7681C19.395 19.8199 19.2687 19.8987 19.1616 20C17.3116 21.7518 14.8606 22.7279 12.3128 22.7274C9.33841 22.7274 6.66219 21.411 4.81646 19.3232L10.0744 10.8805V14.7726C10.0744 16.6421 10.7994 17.2463 11.4073 17.4232C12.0159 17.6 12.9457 17.4793 13.922 15.8939L16.814 11.2055C16.9067 11.0543 16.9921 10.9238 17.0701 10.811V13.1817C17.0701 14.9293 17.7701 16.3268 18.9902 17.0152C20.0902 17.636 21.4732 17.5799 22.6 16.8689C23.9659 16.0061 24.7018 14.4165 24.625 12.5006ZM41.7671 8.22988C42.0628 8.40976 42.3189 8.80976 42.3189 9.17012C42.3189 9.75 41.8262 10.2299 41.2744 10.2299C41.1366 10.2299 40.9988 10.1902 40.8805 10.15C40.2299 9.67012 39.4024 9.35 38.5354 9.35C36.4866 9.35 35.0677 11.0299 35.0677 13.1098C35.0677 15.1902 36.4866 16.85 38.5354 16.85C39.5598 16.85 40.4665 16.4299 41.1561 15.7902C41.3343 15.6622 41.5477 15.5923 41.7671 15.5902C42.3189 15.5902 42.7524 16.0299 42.7524 16.5902C42.7524 16.95 42.5354 17.2701 42.2598 17.45C41.2744 18.2902 39.9348 18.85 38.5555 18.85C35.403 18.85 32.8409 16.25 32.8409 13.05C32.8409 9.85 35.4024 7.25 38.5555 7.25C39.7378 7.25 40.8604 7.60976 41.7671 8.22988ZM47.5317 10.65C49.6793 10.65 51.4921 12.4701 51.4921 14.7098C51.4921 16.95 49.6793 18.85 47.5317 18.85C45.2854 18.85 43.4134 16.95 43.4134 14.7098C43.4134 12.4701 45.2854 10.65 47.5317 10.65ZM47.5116 16.85C48.4579 16.85 49.2652 15.95 49.2652 14.7299C49.2652 13.5104 48.4579 12.75 47.5116 12.75C46.4872 12.75 45.6396 13.4902 45.6396 14.7299C45.6396 15.95 46.4872 16.85 47.5116 16.85ZM52.8427 17.6098V11.8902C52.8427 11.2701 53.3354 10.75 53.9463 10.75C54.5573 10.75 55.0695 11.2701 55.0695 11.8902V17.6098C55.0695 18.2299 54.5573 18.75 53.9463 18.75C53.3354 18.75 52.8427 18.2299 52.8427 17.6098ZM52.6659 8.59024C52.6659 7.85 53.2366 7.25 53.9463 7.25C54.675 7.25 55.2665 7.85 55.2665 8.59024C55.2665 9.30976 54.675 9.89024 53.9463 9.89024C53.2366 9.89024 52.6659 9.30976 52.6659 8.59024ZM59.3366 14.5098V17.6098C59.3366 18.2299 58.8244 18.75 58.2128 18.75C57.6024 18.75 57.1091 18.2299 57.1091 17.6098V11.6299C57.1091 11.15 57.5037 10.75 57.9768 10.75C58.4494 10.75 58.8244 11.15 58.8244 11.6299C59.7305 10.7902 60.5183 10.65 61.2671 10.65C63.4939 10.65 64.4793 12.3299 64.4793 14.2299V17.6098C64.4793 18.2299 63.9671 18.75 63.3561 18.75C62.7451 18.75 62.2524 18.2299 62.2524 17.6098V14.5098C62.2524 13.5299 62.1341 12.7098 60.7354 12.7098C59.75 12.7098 59.336 13.5299 59.336 14.5098H59.3366ZM71.7213 15.6902C71.4652 15.6902 71.2884 15.5701 71.15 15.4098L68.5488 12.5902V17.6098C68.5488 18.2299 68.0366 18.75 67.4256 18.75C66.8146 18.75 66.3219 18.2299 66.3219 17.6098V7.67073C66.3538 7.587 66.4107 7.51513 66.4849 7.46494C66.5591 7.41474 66.647 7.38866 66.7366 7.39024C66.9329 7.39024 67.0902 7.55061 67.2091 7.67073L71.3469 12.3305C71.4652 12.4707 71.6226 12.5506 71.7018 12.5506C71.7805 12.5506 71.9378 12.4707 72.0561 12.3311L76.1945 7.67073C76.3128 7.55061 76.4701 7.39024 76.6671 7.39024C76.864 7.39024 77.0219 7.51037 77.0811 7.67073V17.6098C77.0811 18.2299 76.5884 18.75 75.9774 18.75C75.3665 18.75 74.8543 18.2299 74.8543 17.6098V12.5902L72.2537 15.4098C72.1152 15.5701 71.9378 15.6902 71.7213 15.6902ZM82.4317 16.85C83.4366 16.85 84.2835 15.95 84.2835 14.7299C84.2835 13.5104 83.4171 12.7098 82.4317 12.7098C81.4463 12.7098 80.6579 13.5299 80.6579 14.7299C80.6579 15.9098 81.4463 16.85 82.4317 16.85ZM84.7963 17.8701L84.7561 17.6098C84.3232 18.4695 82.9433 18.85 82.0567 18.85C79.9677 18.85 78.4311 16.95 78.4311 14.7098C78.4311 12.4701 80.0073 10.65 82.175 10.65C82.5494 10.65 83.7908 10.75 84.7561 11.8902L84.7957 11.6299C84.7957 11.15 85.1701 10.75 85.6433 10.75C86.1158 10.75 86.5098 11.15 86.5098 11.6299V17.8701C86.5098 18.35 86.1158 18.75 85.6427 18.75C85.1701 18.75 84.7951 18.35 84.7951 17.8701H84.7963ZM92.6884 12.7098H92.4524C91.053 12.7902 90.7774 13.5902 90.7774 14.5098V17.6098C90.7774 18.2299 90.2652 18.75 89.6543 18.75C89.0433 18.75 88.5506 18.2299 88.5506 17.6098V11.6299C88.5506 11.15 88.9445 10.75 89.4177 10.75C89.8908 10.75 90.2652 11.15 90.2652 11.6299C91.0927 10.85 91.7628 10.6902 92.4524 10.65H92.6689C93.2012 10.65 93.6933 11.1098 93.6933 11.6902C93.6933 12.2299 93.2207 12.7098 92.6884 12.7098ZM101.271 17.0902C101.37 17.25 101.429 17.4299 101.429 17.6299C101.429 18.2098 100.896 18.75 100.325 18.75C99.9311 18.75 99.5957 18.45 99.3396 18.1299L96.7786 15.15V17.6098C96.7786 18.2299 96.2658 18.75 95.6549 18.75C95.0439 18.75 94.5512 18.2299 94.5512 17.6098V8.53049C94.5512 7.90976 95.0439 7.39024 95.6549 7.39024C96.2658 7.39024 96.778 7.90976 96.778 8.53049V14.1902L99.3396 11.35C99.5957 11.05 99.911 10.75 100.305 10.75C100.857 10.75 101.37 11.2701 101.37 11.85C101.37 12.0299 101.33 12.2098 101.231 12.3701L99.2018 14.5896L101.271 17.0896V17.0902ZM105.637 12.75C105.026 12.75 104.04 13.0701 104.04 14.0098H107.252C107.252 13.05 106.227 12.75 105.636 12.75H105.637ZM108.552 15.4299H104.04C104.04 16.7701 105.321 16.9701 105.892 16.9701C106.307 16.9701 106.898 16.8902 107.351 16.6896C107.488 16.5902 107.725 16.5098 107.922 16.5098C108.415 16.5098 108.828 16.9305 108.828 17.4305C108.828 17.7701 108.612 18.0701 108.336 18.2299C107.646 18.7299 106.759 18.85 105.912 18.85C103.666 18.85 101.794 17.6305 101.794 14.8098C101.794 12.5902 102.937 10.65 105.597 10.65C107.745 10.65 109.38 12.05 109.42 14.55C109.42 15.0299 109.026 15.4299 108.552 15.4299ZM114.751 18.85H114.14C112.445 18.85 111.46 18.1098 111.46 15.45V12.7098H110.888C110.356 12.7098 109.884 12.2299 109.884 11.6902C109.884 11.1098 110.356 10.65 110.888 10.65H111.46V8.52988C111.46 7.90976 111.952 7.38963 112.563 7.38963C113.174 7.38963 113.687 7.90976 113.687 8.52988V10.65H114.612C115.145 10.65 115.618 11.1098 115.618 11.6902C115.618 12.2299 115.145 12.7098 114.612 12.7098H113.687V15.0098C113.687 16.5299 113.765 16.85 114.435 16.85H114.751C115.282 16.85 115.735 17.2902 115.735 17.85C115.735 18.3902 115.282 18.85 114.751 18.85ZM125.54 8.22988C125.835 8.40976 126.091 8.80976 126.091 9.17012C126.091 9.75 125.599 10.2299 125.047 10.2299C124.909 10.2299 124.771 10.1902 124.653 10.15C124.002 9.67012 123.175 9.35 122.308 9.35C120.259 9.35 118.84 11.0299 118.84 13.1098C118.84 15.1902 120.259 16.85 122.308 16.85C123.332 16.85 124.239 16.4299 124.929 15.7902C125.107 15.6622 125.32 15.5923 125.54 15.5902C126.091 15.5902 126.524 16.0299 126.524 16.5902C126.524 16.95 126.308 17.2701 126.032 17.45C125.047 18.2902 123.707 18.85 122.327 18.85C119.175 18.85 116.613 16.25 116.613 13.05C116.613 9.85 119.174 7.25 122.327 7.25C123.51 7.25 124.633 7.60976 125.54 8.22988ZM131.186 16.85C132.191 16.85 133.038 15.95 133.038 14.7299C133.038 13.5104 132.171 12.7098 131.185 12.7098C130.201 12.7098 129.412 13.5299 129.412 14.7299C129.412 15.9098 130.201 16.85 131.185 16.85H131.186ZM133.55 17.8701L133.511 17.6098C133.077 18.4695 131.698 18.85 130.811 18.85C128.723 18.85 127.185 16.95 127.185 14.7098C127.185 12.4701 128.762 10.65 130.929 10.65C131.304 10.65 132.545 10.75 133.511 11.8902L133.55 11.6299C133.55 11.15 133.924 10.75 134.398 10.75C134.87 10.75 135.265 11.15 135.265 11.6299V17.8701C135.265 18.35 134.87 18.75 134.398 18.75C133.924 18.75 133.55 18.35 133.55 17.8701ZM141.384 16.85C142.369 16.85 143.157 15.9098 143.157 14.7299C143.157 13.5299 142.369 12.7098 141.384 12.7098C140.398 12.7098 139.531 13.5098 139.531 14.7299C139.531 15.95 140.379 16.85 141.384 16.85ZM139.531 18.1902V21.0299C139.531 21.65 139.019 22.1701 138.408 22.1701C137.798 22.1701 137.304 21.65 137.304 21.0299V11.6299C137.304 11.15 137.699 10.75 138.172 10.75C138.645 10.75 139.02 11.15 139.02 11.7098C139.846 10.85 140.871 10.65 141.64 10.65C143.807 10.65 145.384 12.4701 145.384 14.7098C145.384 16.95 143.847 18.85 141.758 18.85C141.108 18.85 140.142 18.65 139.531 18.1902Z" fill="white"/>
</svg>
