<svg width="392" height="332" viewBox="0 0 392 332" fill="none" xmlns="http://www.w3.org/2000/svg">
<path d="M57 69C57 60.1634 64.1634 53 73 53H201C209.837 53 217 60.1634 217 69V322H57V69Z" fill="url(#paint0_linear_18_294)"/>
<path d="M232 313C232 304.163 239.163 297 248 297H376C384.837 297 392 304.163 392 313V322H232V313Z" fill="url(#paint1_linear_18_294)"/>
<path d="M257.795 271.191V268.909H268.547V271.191H264.539V282H261.803V271.191H257.795ZM273.317 282.192C272.307 282.192 271.438 281.987 270.709 281.578C269.985 281.165 269.426 280.581 269.034 279.827C268.642 279.068 268.446 278.171 268.446 277.136C268.446 276.126 268.642 275.239 269.034 274.477C269.426 273.714 269.978 273.119 270.69 272.693C271.406 272.267 272.245 272.054 273.208 272.054C273.856 272.054 274.459 272.158 275.017 272.367C275.58 272.572 276.07 272.881 276.487 273.294C276.909 273.707 277.237 274.227 277.472 274.854C277.706 275.476 277.823 276.205 277.823 277.04V277.788H269.533V276.1H275.26C275.26 275.708 275.175 275.361 275.004 275.058C274.834 274.756 274.597 274.519 274.295 274.349C273.997 274.174 273.649 274.087 273.253 274.087C272.84 274.087 272.473 274.183 272.154 274.374C271.838 274.562 271.591 274.815 271.412 275.135C271.233 275.45 271.142 275.802 271.137 276.19V277.794C271.137 278.28 271.227 278.7 271.406 279.053C271.589 279.407 271.847 279.68 272.179 279.871C272.512 280.063 272.906 280.159 273.362 280.159C273.664 280.159 273.941 280.116 274.193 280.031C274.444 279.946 274.659 279.818 274.838 279.648C275.017 279.477 275.154 279.268 275.247 279.021L277.766 279.188C277.638 279.793 277.376 280.321 276.98 280.773C276.588 281.22 276.08 281.57 275.458 281.821C274.84 282.068 274.127 282.192 273.317 282.192ZM282.4 282.185C281.774 282.185 281.215 282.077 280.725 281.859C280.235 281.638 279.847 281.312 279.562 280.881C279.281 280.447 279.14 279.906 279.14 279.258C279.14 278.712 279.24 278.254 279.441 277.884C279.641 277.513 279.914 277.214 280.259 276.989C280.604 276.763 280.996 276.592 281.435 276.477C281.878 276.362 282.343 276.281 282.828 276.234C283.399 276.175 283.86 276.119 284.209 276.068C284.558 276.013 284.812 275.932 284.97 275.825C285.127 275.719 285.206 275.561 285.206 275.352V275.314C285.206 274.909 285.078 274.596 284.823 274.374C284.571 274.153 284.213 274.042 283.749 274.042C283.259 274.042 282.869 274.151 282.579 274.368C282.289 274.581 282.097 274.849 282.004 275.173L279.485 274.969C279.613 274.372 279.865 273.857 280.24 273.422C280.615 272.983 281.098 272.646 281.691 272.412C282.287 272.173 282.977 272.054 283.762 272.054C284.307 272.054 284.829 272.118 285.328 272.246C285.83 272.374 286.276 272.572 286.664 272.84C287.056 273.109 287.365 273.454 287.59 273.876C287.816 274.293 287.929 274.794 287.929 275.378V282H285.347V280.638H285.27C285.112 280.945 284.901 281.216 284.637 281.45C284.373 281.68 284.056 281.862 283.685 281.994C283.314 282.121 282.886 282.185 282.4 282.185ZM283.18 280.306C283.58 280.306 283.934 280.227 284.241 280.07C284.548 279.908 284.789 279.69 284.963 279.418C285.138 279.145 285.225 278.836 285.225 278.491V277.449C285.14 277.504 285.023 277.555 284.874 277.602C284.729 277.645 284.565 277.685 284.382 277.724C284.198 277.758 284.015 277.79 283.832 277.82C283.649 277.845 283.482 277.869 283.333 277.89C283.014 277.937 282.735 278.011 282.496 278.114C282.257 278.216 282.072 278.354 281.94 278.529C281.808 278.7 281.742 278.913 281.742 279.168C281.742 279.539 281.876 279.822 282.144 280.018C282.417 280.21 282.762 280.306 283.18 280.306ZM290.042 282V272.182H292.637V273.914H292.752C292.956 273.339 293.297 272.885 293.775 272.553C294.252 272.22 294.823 272.054 295.488 272.054C296.161 272.054 296.734 272.222 297.207 272.559C297.68 272.891 297.996 273.343 298.153 273.914H298.256C298.456 273.352 298.818 272.902 299.342 272.565C299.871 272.224 300.495 272.054 301.215 272.054C302.131 272.054 302.875 272.346 303.446 272.93C304.021 273.509 304.309 274.332 304.309 275.397V282H301.592V275.934C301.592 275.388 301.447 274.979 301.157 274.707C300.868 274.434 300.506 274.298 300.071 274.298C299.577 274.298 299.191 274.455 298.914 274.771C298.637 275.082 298.498 275.493 298.498 276.004V282H295.858V275.876C295.858 275.395 295.72 275.011 295.443 274.726C295.17 274.44 294.81 274.298 294.363 274.298C294.06 274.298 293.787 274.374 293.545 274.528C293.306 274.677 293.116 274.888 292.976 275.161C292.835 275.429 292.765 275.744 292.765 276.107V282H290.042ZM311.227 275.455C311.227 273.869 311.438 272.41 311.859 271.076C312.286 269.742 312.935 268.506 313.809 267.369H316.411C316.078 267.79 315.769 268.306 315.484 268.915C315.198 269.521 314.949 270.185 314.736 270.91C314.523 271.634 314.357 272.384 314.237 273.16C314.118 273.931 314.058 274.696 314.058 275.455C314.058 276.464 314.161 277.485 314.365 278.516C314.574 279.543 314.855 280.498 315.209 281.38C315.567 282.262 315.967 282.984 316.411 283.547H313.809C312.935 282.409 312.286 281.173 311.859 279.839C311.438 278.506 311.227 277.044 311.227 275.455ZM322.849 282.179C321.865 282.179 320.989 282.019 320.222 281.7C319.459 281.376 318.86 280.935 318.426 280.376C317.991 279.818 317.774 279.185 317.774 278.478C317.774 277.933 317.897 277.432 318.144 276.976C318.396 276.516 318.737 276.134 319.167 275.832C319.597 275.525 320.079 275.329 320.612 275.244V275.154C319.913 275.013 319.346 274.675 318.911 274.138C318.477 273.597 318.259 272.968 318.259 272.252C318.259 271.575 318.458 270.972 318.854 270.443C319.25 269.911 319.794 269.493 320.484 269.19C321.178 268.884 321.967 268.73 322.849 268.73C323.731 268.73 324.517 268.884 325.208 269.19C325.902 269.497 326.448 269.917 326.844 270.45C327.24 270.978 327.441 271.579 327.445 272.252C327.441 272.972 327.219 273.601 326.78 274.138C326.341 274.675 325.779 275.013 325.093 275.154V275.244C325.617 275.329 326.092 275.525 326.518 275.832C326.948 276.134 327.289 276.516 327.541 276.976C327.796 277.432 327.926 277.933 327.931 278.478C327.926 279.185 327.707 279.818 327.272 280.376C326.838 280.935 326.237 281.376 325.47 281.7C324.707 282.019 323.833 282.179 322.849 282.179ZM322.849 280.146C323.288 280.146 323.671 280.067 323.999 279.91C324.328 279.748 324.583 279.526 324.767 279.245C324.954 278.96 325.048 278.631 325.048 278.261C325.048 277.881 324.952 277.547 324.76 277.257C324.568 276.963 324.308 276.733 323.98 276.567C323.652 276.396 323.275 276.311 322.849 276.311C322.427 276.311 322.05 276.396 321.718 276.567C321.385 276.733 321.123 276.963 320.931 277.257C320.744 277.547 320.65 277.881 320.65 278.261C320.65 278.631 320.742 278.96 320.925 279.245C321.108 279.526 321.366 279.748 321.698 279.91C322.031 280.067 322.414 280.146 322.849 280.146ZM322.849 274.298C323.215 274.298 323.541 274.223 323.827 274.074C324.112 273.925 324.336 273.718 324.498 273.454C324.66 273.19 324.741 272.885 324.741 272.54C324.741 272.199 324.66 271.901 324.498 271.645C324.336 271.385 324.115 271.183 323.833 271.038C323.552 270.888 323.224 270.814 322.849 270.814C322.478 270.814 322.15 270.888 321.865 271.038C321.579 271.183 321.355 271.385 321.193 271.645C321.036 271.901 320.957 272.199 320.957 272.54C320.957 272.885 321.038 273.19 321.2 273.454C321.362 273.718 321.585 273.925 321.871 274.074C322.156 274.223 322.482 274.298 322.849 274.298ZM331.114 282.166C330.692 282.166 330.33 282.017 330.027 281.719C329.729 281.416 329.58 281.054 329.58 280.632C329.58 280.214 329.729 279.857 330.027 279.558C330.33 279.26 330.692 279.111 331.114 279.111C331.523 279.111 331.881 279.26 332.188 279.558C332.494 279.857 332.648 280.214 332.648 280.632C332.648 280.913 332.575 281.171 332.431 281.406C332.29 281.636 332.105 281.821 331.874 281.962C331.644 282.098 331.391 282.166 331.114 282.166ZM334.884 282L340.31 271.261V271.172H333.989V268.909H343.174V271.204L337.741 282H334.884ZM352.236 279.545V278.855C352.236 278.331 352.347 277.849 352.569 277.411C352.795 276.967 353.121 276.614 353.547 276.349C353.977 276.081 354.501 275.947 355.119 275.947C355.746 275.947 356.272 276.079 356.698 276.343C357.128 276.607 357.452 276.961 357.67 277.404C357.891 277.843 358.002 278.327 358.002 278.855V279.545C358.002 280.07 357.891 280.553 357.67 280.996C357.448 281.435 357.122 281.787 356.692 282.051C356.261 282.32 355.737 282.454 355.119 282.454C354.493 282.454 353.966 282.32 353.54 282.051C353.114 281.787 352.79 281.435 352.569 280.996C352.347 280.553 352.236 280.07 352.236 279.545ZM354.096 278.855V279.545C354.096 279.848 354.169 280.134 354.314 280.402C354.463 280.67 354.731 280.805 355.119 280.805C355.507 280.805 355.771 280.673 355.912 280.408C356.057 280.144 356.129 279.857 356.129 279.545V278.855C356.129 278.544 356.061 278.254 355.925 277.986C355.788 277.717 355.52 277.583 355.119 277.583C354.736 277.583 354.469 277.717 354.32 277.986C354.171 278.254 354.096 278.544 354.096 278.855ZM345.518 272.054V271.364C345.518 270.835 345.631 270.352 345.857 269.913C346.083 269.469 346.409 269.116 346.835 268.852C347.265 268.587 347.785 268.455 348.395 268.455C349.025 268.455 349.554 268.587 349.98 268.852C350.406 269.116 350.73 269.469 350.952 269.913C351.173 270.352 351.284 270.835 351.284 271.364V272.054C351.284 272.582 351.171 273.066 350.945 273.505C350.724 273.944 350.398 274.295 349.967 274.56C349.541 274.82 349.017 274.95 348.395 274.95C347.773 274.95 347.246 274.817 346.816 274.553C346.39 274.285 346.066 273.933 345.844 273.499C345.627 273.06 345.518 272.578 345.518 272.054ZM347.391 271.364V272.054C347.391 272.365 347.464 272.653 347.608 272.917C347.758 273.181 348.02 273.313 348.395 273.313C348.787 273.313 349.053 273.181 349.194 272.917C349.339 272.653 349.411 272.365 349.411 272.054V271.364C349.411 271.053 349.343 270.763 349.206 270.494C349.07 270.226 348.8 270.092 348.395 270.092C348.015 270.092 347.753 270.228 347.608 270.501C347.464 270.773 347.391 271.061 347.391 271.364ZM346.362 282L355.362 268.909H357.037L348.037 282H346.362ZM365.155 275.455C365.155 277.044 364.942 278.506 364.515 279.839C364.094 281.173 363.446 282.409 362.572 283.547H359.971C360.303 283.125 360.612 282.609 360.898 282C361.183 281.391 361.432 280.726 361.645 280.006C361.858 279.281 362.025 278.531 362.144 277.756C362.263 276.98 362.323 276.213 362.323 275.455C362.323 274.445 362.219 273.426 362.01 272.399C361.805 271.368 361.524 270.413 361.166 269.536C360.812 268.653 360.414 267.931 359.971 267.369H362.572C363.446 268.506 364.094 269.742 364.515 271.076C364.942 272.41 365.155 273.869 365.155 275.455Z" fill="white"/>
<path d="M70.5079 21.9091H73.9213L77.5264 30.7045H77.6798L81.2849 21.9091H84.6982V35H82.0136V26.4794H81.9049L78.5171 34.9361H76.689L73.3012 26.4474H73.1926V35H70.5079V21.9091ZM89.7272 35.1854C89.1008 35.1854 88.5425 35.0767 88.0525 34.8594C87.5624 34.6378 87.1746 34.3118 86.8891 33.8814C86.6079 33.4467 86.4672 32.9055 86.4672 32.2578C86.4672 31.7124 86.5674 31.2543 86.7677 30.8835C86.968 30.5128 87.2407 30.2145 87.5858 29.9886C87.931 29.7628 88.3231 29.5923 88.762 29.4773C89.2052 29.3622 89.6697 29.2812 90.1555 29.2344C90.7265 29.1747 91.1867 29.1193 91.5361 29.0682C91.8856 29.0128 92.1391 28.9318 92.2968 28.8253C92.4545 28.7187 92.5333 28.5611 92.5333 28.3523V28.3139C92.5333 27.9091 92.4055 27.5959 92.1498 27.3743C91.8983 27.1527 91.5404 27.0419 91.0759 27.0419C90.5858 27.0419 90.1959 27.1506 89.9062 27.3679C89.6164 27.581 89.4246 27.8494 89.3309 28.1733L86.8124 27.9688C86.9403 27.3722 87.1917 26.8565 87.5667 26.4219C87.9417 25.983 88.4253 25.6463 89.0177 25.4119C89.6143 25.1733 90.3046 25.054 91.0887 25.054C91.6341 25.054 92.1562 25.1179 92.6547 25.2457C93.1576 25.3736 93.6029 25.5717 93.9907 25.8402C94.3827 26.1087 94.6917 26.4538 94.9175 26.8757C95.1434 27.2933 95.2563 27.794 95.2563 28.3778V35H92.6739V33.6385H92.5972C92.4395 33.9453 92.2286 34.2159 91.9644 34.4503C91.7002 34.6804 91.3827 34.8615 91.012 34.9936C90.6412 35.1214 90.213 35.1854 89.7272 35.1854ZM90.507 33.3061C90.9076 33.3061 91.2613 33.2273 91.5681 33.0696C91.8749 32.9077 92.1157 32.6903 92.2904 32.4176C92.4651 32.1449 92.5525 31.8359 92.5525 31.4908V30.4489C92.4672 30.5043 92.3501 30.5554 92.2009 30.6023C92.056 30.6449 91.892 30.6854 91.7087 30.7237C91.5255 30.7578 91.3422 30.7898 91.159 30.8196C90.9758 30.8452 90.8096 30.8686 90.6604 30.8899C90.3408 30.9368 90.0617 31.0114 89.8231 31.1136C89.5844 31.2159 89.3991 31.3544 89.267 31.5291C89.1349 31.6996 89.0688 31.9126 89.0688 32.1683C89.0688 32.5391 89.203 32.8224 89.4715 33.0185C89.7442 33.2102 90.0894 33.3061 90.507 33.3061ZM97.3689 35V25.1818H100.009V26.8949H100.111C100.29 26.2855 100.59 25.8253 101.012 25.5142C101.434 25.1989 101.92 25.0412 102.47 25.0412C102.606 25.0412 102.753 25.0497 102.911 25.0668C103.068 25.0838 103.207 25.1072 103.326 25.1371V27.5533C103.198 27.5149 103.022 27.4808 102.796 27.451C102.57 27.4212 102.363 27.4062 102.176 27.4062C101.775 27.4062 101.417 27.4936 101.102 27.6683C100.791 27.8388 100.544 28.0774 100.36 28.3842C100.181 28.6911 100.092 29.0447 100.092 29.4453V35H97.3689ZM107.201 32.1747L107.208 28.9084H107.604L110.749 25.1818H113.875L109.65 30.1165H109.004L107.201 32.1747ZM104.734 35V21.9091H107.457V35H104.734ZM110.87 35L107.981 30.7237L109.797 28.7997L114.06 35H110.87ZM119.281 35.1918C118.271 35.1918 117.402 34.9872 116.673 34.5781C115.948 34.1648 115.39 33.581 114.998 32.8267C114.606 32.0682 114.41 31.1712 114.41 30.1357C114.41 29.1257 114.606 28.2393 114.998 27.4766C115.39 26.7138 115.942 26.1193 116.654 25.6932C117.37 25.267 118.209 25.054 119.172 25.054C119.82 25.054 120.423 25.1584 120.981 25.3672C121.544 25.5717 122.034 25.8807 122.451 26.294C122.873 26.7074 123.201 27.2273 123.436 27.8537C123.67 28.4759 123.787 29.2045 123.787 30.0398V30.7876H115.497V29.1001H121.224C121.224 28.7081 121.139 28.3608 120.968 28.0582C120.798 27.7557 120.561 27.5192 120.259 27.3487C119.96 27.174 119.613 27.0866 119.217 27.0866C118.804 27.0866 118.437 27.1825 118.117 27.3743C117.802 27.5618 117.555 27.8153 117.376 28.1349C117.197 28.4503 117.105 28.8018 117.101 29.1896V30.794C117.101 31.2798 117.191 31.6996 117.37 32.0533C117.553 32.407 117.811 32.6797 118.143 32.8714C118.475 33.0632 118.87 33.1591 119.326 33.1591C119.628 33.1591 119.905 33.1165 120.157 33.0312C120.408 32.946 120.623 32.8182 120.802 32.6477C120.981 32.4773 121.117 32.2685 121.211 32.0213L123.73 32.1875C123.602 32.7926 123.34 33.321 122.943 33.7727C122.551 34.2202 122.044 34.5696 121.422 34.821C120.804 35.0682 120.09 35.1918 119.281 35.1918ZM130.786 25.1818V27.2273H124.874V25.1818H130.786ZM126.216 22.8295H128.939V31.983C128.939 32.2344 128.978 32.4304 129.054 32.571C129.131 32.7074 129.237 32.8033 129.374 32.8587C129.514 32.9141 129.676 32.9418 129.86 32.9418C129.987 32.9418 130.115 32.9311 130.243 32.9098C130.371 32.8842 130.469 32.8651 130.537 32.8523L130.965 34.8786C130.829 34.9212 130.637 34.9702 130.39 35.0256C130.143 35.0852 129.843 35.1214 129.489 35.1342C128.833 35.1598 128.257 35.0724 127.763 34.8722C127.273 34.6719 126.892 34.3608 126.619 33.9389C126.346 33.517 126.212 32.9844 126.216 32.3409V22.8295ZM137.327 28.4545C137.327 26.8693 137.538 25.4098 137.96 24.076C138.386 22.7422 139.036 21.5064 139.91 20.3686H142.511C142.179 20.7905 141.87 21.3061 141.584 21.9155C141.299 22.5206 141.049 23.1854 140.836 23.9098C140.623 24.6342 140.457 25.3842 140.338 26.1598C140.218 26.9311 140.159 27.696 140.159 28.4545C140.159 29.4645 140.261 30.4851 140.466 31.5163C140.674 32.5433 140.956 33.4979 141.309 34.38C141.667 35.2621 142.068 35.9844 142.511 36.5469H139.91C139.036 35.4091 138.386 34.1733 137.96 32.8395C137.538 31.5057 137.327 30.044 137.327 28.4545ZM148.802 21.7301C149.476 21.7301 150.123 21.843 150.746 22.0689C151.372 22.2947 151.93 22.6548 152.42 23.1491C152.915 23.6435 153.305 24.2997 153.59 25.1179C153.88 25.9318 154.027 26.9311 154.031 28.1158C154.031 29.228 153.905 30.2209 153.654 31.0945C153.407 31.9638 153.051 32.7031 152.587 33.3125C152.122 33.9219 151.562 34.3864 150.905 34.706C150.249 35.0213 149.516 35.179 148.707 35.179C147.833 35.179 147.062 35.0107 146.393 34.674C145.724 34.3331 145.185 33.8707 144.775 33.2869C144.371 32.6989 144.126 32.0384 144.04 31.3054H146.77C146.876 31.7827 147.1 32.1534 147.441 32.4176C147.782 32.6776 148.204 32.8075 148.707 32.8075C149.559 32.8075 150.207 32.4368 150.65 31.6953C151.093 30.9496 151.317 29.929 151.321 28.6335H151.231C151.035 29.017 150.771 29.3473 150.439 29.6243C150.106 29.897 149.725 30.108 149.295 30.2571C148.869 30.4062 148.415 30.4808 147.933 30.4808C147.162 30.4808 146.474 30.2997 145.869 29.9375C145.263 29.5753 144.786 29.0767 144.437 28.4418C144.087 27.8068 143.913 27.0824 143.913 26.2685C143.908 25.3906 144.111 24.6087 144.52 23.9226C144.929 23.2365 145.5 22.6996 146.233 22.3118C146.97 21.9197 147.827 21.7259 148.802 21.7301ZM148.822 23.9034C148.391 23.9034 148.008 24.0057 147.671 24.2102C147.339 24.4148 147.074 24.6896 146.878 25.0348C146.687 25.38 146.593 25.7656 146.597 26.1918C146.597 26.6222 146.691 27.0099 146.878 27.3551C147.07 27.696 147.33 27.9687 147.658 28.1733C147.991 28.3736 148.37 28.4737 148.796 28.4737C149.116 28.4737 149.412 28.4141 149.685 28.2947C149.957 28.1754 150.194 28.0114 150.394 27.8026C150.599 27.5895 150.758 27.3445 150.873 27.0675C150.989 26.7905 151.046 26.4964 151.046 26.1854C151.042 25.772 150.944 25.3928 150.752 25.0476C150.56 24.7024 150.296 24.4254 149.959 24.2166C149.623 24.0078 149.244 23.9034 148.822 23.9034ZM161.644 21.9091V35H158.876V24.5362H158.8L155.802 26.4155V23.9609L159.043 21.9091H161.644ZM165.669 35.1662C165.248 35.1662 164.885 35.017 164.583 34.7188C164.285 34.4162 164.135 34.054 164.135 33.6321C164.135 33.2145 164.285 32.8565 164.583 32.5582C164.885 32.2599 165.248 32.1108 165.669 32.1108C166.079 32.1108 166.437 32.2599 166.743 32.5582C167.05 32.8565 167.204 33.2145 167.204 33.6321C167.204 33.9134 167.131 34.1712 166.986 34.4055C166.846 34.6357 166.66 34.821 166.43 34.9616C166.2 35.098 165.946 35.1662 165.669 35.1662ZM173.831 35.179C172.876 35.179 172.026 35.0149 171.28 34.6868C170.539 34.3544 169.953 33.8984 169.522 33.3189C169.096 32.7351 168.877 32.0618 168.864 31.299H171.651C171.668 31.6186 171.772 31.8999 171.964 32.1428C172.16 32.3814 172.42 32.5668 172.744 32.6989C173.068 32.831 173.432 32.897 173.837 32.897C174.259 32.897 174.632 32.8224 174.956 32.6733C175.279 32.5241 175.533 32.3175 175.716 32.0533C175.899 31.7891 175.991 31.4844 175.991 31.1392C175.991 30.7898 175.893 30.4808 175.697 30.2124C175.505 29.9396 175.228 29.7266 174.866 29.5732C174.508 29.4197 174.082 29.343 173.588 29.343H172.367V27.3104H173.588C174.005 27.3104 174.374 27.2379 174.693 27.093C175.017 26.9482 175.269 26.7479 175.448 26.4922C175.627 26.2322 175.716 25.9297 175.716 25.5845C175.716 25.2564 175.637 24.9688 175.48 24.7216C175.326 24.4702 175.109 24.2741 174.828 24.1335C174.551 23.9929 174.227 23.9226 173.856 23.9226C173.481 23.9226 173.138 23.9908 172.827 24.1271C172.516 24.2592 172.267 24.4489 172.079 24.696C171.892 24.9432 171.791 25.233 171.779 25.5653H169.126C169.139 24.8111 169.354 24.1463 169.772 23.571C170.189 22.9957 170.752 22.5462 171.459 22.2223C172.171 21.8942 172.974 21.7301 173.869 21.7301C174.772 21.7301 175.563 21.8942 176.24 22.2223C176.918 22.5504 177.444 22.9936 177.819 23.5518C178.198 24.1058 178.386 24.728 178.382 25.4183C178.386 26.1513 178.158 26.7628 177.698 27.2528C177.242 27.7429 176.647 28.054 175.914 28.1861V28.2884C176.877 28.4119 177.61 28.7464 178.113 29.2919C178.62 29.8331 178.872 30.5107 178.867 31.3246C178.872 32.0703 178.657 32.733 178.222 33.3125C177.791 33.892 177.197 34.348 176.438 34.6804C175.68 35.0128 174.811 35.179 173.831 35.179ZM188.022 32.5455V31.8551C188.022 31.331 188.133 30.8494 188.355 30.4105C188.581 29.9673 188.907 29.6136 189.333 29.3494C189.763 29.081 190.287 28.9467 190.905 28.9467C191.532 28.9467 192.058 29.0788 192.484 29.343C192.915 29.6072 193.238 29.9609 193.456 30.4041C193.677 30.843 193.788 31.3267 193.788 31.8551V32.5455C193.788 33.0696 193.677 33.5533 193.456 33.9964C193.234 34.4354 192.908 34.7869 192.478 35.0511C192.047 35.3196 191.523 35.4538 190.905 35.4538C190.279 35.4538 189.753 35.3196 189.326 35.0511C188.9 34.7869 188.576 34.4354 188.355 33.9964C188.133 33.5533 188.022 33.0696 188.022 32.5455ZM189.883 31.8551V32.5455C189.883 32.848 189.955 33.1335 190.1 33.402C190.249 33.6705 190.517 33.8047 190.905 33.8047C191.293 33.8047 191.557 33.6726 191.698 33.4084C191.843 33.1442 191.915 32.8565 191.915 32.5455V31.8551C191.915 31.544 191.847 31.2543 191.711 30.9858C191.574 30.7173 191.306 30.5831 190.905 30.5831C190.522 30.5831 190.255 30.7173 190.106 30.9858C189.957 31.2543 189.883 31.544 189.883 31.8551ZM181.304 25.054V24.3636C181.304 23.8352 181.417 23.3516 181.643 22.9126C181.869 22.4695 182.195 22.1158 182.621 21.8516C183.052 21.5874 183.571 21.4553 184.181 21.4553C184.812 21.4553 185.34 21.5874 185.766 21.8516C186.192 22.1158 186.516 22.4695 186.738 22.9126C186.959 23.3516 187.07 23.8352 187.07 24.3636V25.054C187.07 25.5824 186.957 26.0661 186.731 26.505C186.51 26.9439 186.184 27.2955 185.753 27.5597C185.327 27.8196 184.803 27.9496 184.181 27.9496C183.559 27.9496 183.032 27.8175 182.602 27.5533C182.176 27.2848 181.852 26.9332 181.63 26.4986C181.413 26.0597 181.304 25.5781 181.304 25.054ZM183.177 24.3636V25.054C183.177 25.3651 183.25 25.6527 183.395 25.9169C183.544 26.1811 183.806 26.3132 184.181 26.3132C184.573 26.3132 184.839 26.1811 184.98 25.9169C185.125 25.6527 185.197 25.3651 185.197 25.054V24.3636C185.197 24.0526 185.129 23.7628 184.993 23.4943C184.856 23.2259 184.586 23.0916 184.181 23.0916C183.802 23.0916 183.54 23.228 183.395 23.5007C183.25 23.7734 183.177 24.0611 183.177 24.3636ZM182.148 35L191.148 21.9091H192.823L183.823 35H182.148ZM200.941 28.4545C200.941 30.044 200.728 31.5057 200.302 32.8395C199.88 34.1733 199.232 35.4091 198.358 36.5469H195.757C196.089 36.125 196.398 35.6094 196.684 35C196.969 34.3906 197.218 33.7259 197.432 33.0057C197.645 32.2812 197.811 31.5312 197.93 30.7557C198.049 29.9801 198.109 29.2131 198.109 28.4545C198.109 27.4446 198.005 26.4261 197.796 25.3991C197.591 24.3679 197.31 23.4134 196.952 22.5355C196.598 21.6534 196.2 20.9311 195.757 20.3686H198.358C199.232 21.5064 199.88 22.7422 200.302 24.076C200.728 25.4098 200.941 26.8693 200.941 28.4545Z" fill="white"/>
<path d="M40.5 11.5L40.5 331.5" stroke="#B1B1B1" stroke-linecap="round"/>
<line x1="40.5" y1="247.5" x2="26.5" y2="247.5" stroke="#B1B1B1" stroke-linecap="round"/>
<line x1="40.5" y1="172.5" x2="26.5" y2="172.5" stroke="#B1B1B1" stroke-linecap="round"/>
<line x1="40.5" y1="98.5" x2="26.5" y2="98.5" stroke="#B1B1B1" stroke-linecap="round"/>
<line x1="40.5" y1="22.5" x2="26.5" y2="22.5" stroke="#B1B1B1" stroke-linecap="round"/>
<path d="M8.68484 239H15.1081V237.906H10.3752V237.827L12.6621 235.381C14.4121 233.506 14.9292 232.631 14.9292 231.503C14.9292 229.932 13.6564 228.679 11.8667 228.679C10.0819 228.679 8.72461 229.892 8.72461 231.682H9.8979C9.8979 230.523 10.6486 229.753 11.8269 229.753C12.9306 229.753 13.7757 230.429 13.7757 231.503C13.7757 232.442 13.2239 233.138 12.0456 234.426L8.68484 238.105V239ZM20.3432 239.139C22.2821 239.139 23.704 237.707 23.704 235.759C23.704 233.785 22.3319 232.338 20.4625 232.338C19.7765 232.338 19.1103 232.582 18.6926 232.915H18.633L18.9909 229.912H23.2466V228.818H17.9569L17.3404 233.83L18.4938 233.969C18.9164 233.665 19.6373 233.447 20.2637 233.452C21.5613 233.462 22.5108 234.446 22.5108 235.778C22.5108 237.086 21.5961 238.045 20.3432 238.045C19.2992 238.045 18.4689 237.374 18.3745 236.455H17.1813C17.2559 238.006 18.5932 239.139 20.3432 239.139ZM30.8693 237.091C30.8693 238.205 31.5653 239.139 32.858 239.139C34.1307 239.139 34.8267 238.205 34.8267 237.091V236.554C34.8267 235.44 34.1506 234.506 32.858 234.506C31.5852 234.506 30.8693 235.44 30.8693 236.554V237.091ZM25.7983 231.264C25.7983 232.378 26.4943 233.312 27.7869 233.312C29.0597 233.312 29.7557 232.378 29.7557 231.264V230.727C29.7557 229.614 29.0795 228.679 27.7869 228.679C26.5142 228.679 25.7983 229.614 25.7983 230.727V231.264ZM26.1761 239H27.3097L34.3097 228.818H33.1761L26.1761 239ZM31.8835 236.554C31.8835 235.938 32.1619 235.361 32.858 235.361C33.5739 235.361 33.8125 235.938 33.8125 236.554V237.091C33.8125 237.707 33.554 238.284 32.858 238.284C32.142 238.284 31.8835 237.707 31.8835 237.091V236.554ZM26.8125 230.727C26.8125 230.111 27.0909 229.534 27.7869 229.534C28.5028 229.534 28.7415 230.111 28.7415 230.727V231.264C28.7415 231.881 28.483 232.457 27.7869 232.457C27.071 232.457 26.8125 231.881 26.8125 231.264V230.727Z" fill="white"/>
<path d="M20.25 317.139C22.4972 317.139 23.7898 315.235 23.7898 311.909C23.7898 308.608 22.4773 306.679 20.25 306.679C18.0227 306.679 16.7102 308.608 16.7102 311.909C16.7102 315.235 18.0028 317.139 20.25 317.139ZM20.25 316.045C18.7685 316.045 17.9034 314.559 17.9034 311.909C17.9034 309.264 18.7784 307.753 20.25 307.753C21.7216 307.753 22.5966 309.264 22.5966 311.909C22.5966 314.559 21.7315 316.045 20.25 316.045ZM30.8693 315.091C30.8693 316.205 31.5653 317.139 32.858 317.139C34.1307 317.139 34.8267 316.205 34.8267 315.091V314.554C34.8267 313.44 34.1506 312.506 32.858 312.506C31.5852 312.506 30.8693 313.44 30.8693 314.554V315.091ZM25.7983 309.264C25.7983 310.378 26.4943 311.312 27.7869 311.312C29.0597 311.312 29.7557 310.378 29.7557 309.264V308.727C29.7557 307.614 29.0795 306.679 27.7869 306.679C26.5142 306.679 25.7983 307.614 25.7983 308.727V309.264ZM26.1761 317H27.3097L34.3097 306.818H33.1761L26.1761 317ZM31.8835 314.554C31.8835 313.938 32.1619 313.361 32.858 313.361C33.5739 313.361 33.8125 313.938 33.8125 314.554V315.091C33.8125 315.707 33.554 316.284 32.858 316.284C32.142 316.284 31.8835 315.707 31.8835 315.091V314.554ZM26.8125 308.727C26.8125 308.111 27.0909 307.534 27.7869 307.534C28.5028 307.534 28.7415 308.111 28.7415 308.727V309.264C28.7415 309.881 28.483 310.457 27.7869 310.457C27.071 310.457 26.8125 309.881 26.8125 309.264V308.727Z" fill="white"/>
<path d="M11.5932 164.139C13.5321 164.139 14.954 162.707 14.954 160.759C14.954 158.785 13.5819 157.338 11.7125 157.338C11.0265 157.338 10.3603 157.582 9.94265 157.915H9.88299L10.2409 154.912H14.4966V153.818H9.20685L8.59038 158.83L9.74379 158.969C10.1664 158.665 10.8873 158.447 11.5137 158.452C12.8113 158.462 13.7608 159.446 13.7608 160.778C13.7608 162.086 12.8461 163.045 11.5932 163.045C10.5492 163.045 9.71893 162.374 9.62447 161.455H8.43129C8.50586 163.006 9.84322 164.139 11.5932 164.139ZM20.25 164.139C22.4972 164.139 23.7898 162.235 23.7898 158.909C23.7898 155.608 22.4773 153.679 20.25 153.679C18.0227 153.679 16.7102 155.608 16.7102 158.909C16.7102 162.235 18.0028 164.139 20.25 164.139ZM20.25 163.045C18.7685 163.045 17.9034 161.559 17.9034 158.909C17.9034 156.264 18.7784 154.753 20.25 154.753C21.7216 154.753 22.5966 156.264 22.5966 158.909C22.5966 161.559 21.7315 163.045 20.25 163.045ZM30.8693 162.091C30.8693 163.205 31.5653 164.139 32.858 164.139C34.1307 164.139 34.8267 163.205 34.8267 162.091V161.554C34.8267 160.44 34.1506 159.506 32.858 159.506C31.5852 159.506 30.8693 160.44 30.8693 161.554V162.091ZM25.7983 156.264C25.7983 157.378 26.4943 158.312 27.7869 158.312C29.0597 158.312 29.7557 157.378 29.7557 156.264V155.727C29.7557 154.614 29.0795 153.679 27.7869 153.679C26.5142 153.679 25.7983 154.614 25.7983 155.727V156.264ZM26.1761 164H27.3097L34.3097 153.818H33.1761L26.1761 164ZM31.8835 161.554C31.8835 160.938 32.1619 160.361 32.858 160.361C33.5739 160.361 33.8125 160.938 33.8125 161.554V162.091C33.8125 162.707 33.554 163.284 32.858 163.284C32.142 163.284 31.8835 162.707 31.8835 162.091V161.554ZM26.8125 155.727C26.8125 155.111 27.0909 154.534 27.7869 154.534C28.5028 154.534 28.7415 155.111 28.7415 155.727V156.264C28.7415 156.881 28.483 157.457 27.7869 157.457C27.071 157.457 26.8125 156.881 26.8125 156.264V155.727Z" fill="white"/>
<path d="M9.61825 90H10.9109L15.445 80.9716V79.8182H8.92223V80.9119H14.1722V80.9915L9.61825 90ZM20.3432 90.1392C22.2821 90.1392 23.704 88.7074 23.704 86.7585C23.704 84.7848 22.3319 83.3381 20.4625 83.3381C19.7765 83.3381 19.1103 83.5817 18.6926 83.9148H18.633L18.9909 80.9119H23.2466V79.8182H17.9569L17.3404 84.8295L18.4938 84.9688C18.9164 84.6655 19.6373 84.4467 20.2637 84.4517C21.5613 84.4616 22.5108 85.446 22.5108 86.7784C22.5108 88.0859 21.5961 89.0455 20.3432 89.0455C19.2992 89.0455 18.4689 88.3743 18.3745 87.4545H17.1813C17.2559 89.0057 18.5932 90.1392 20.3432 90.1392ZM30.8693 88.0909C30.8693 89.2045 31.5653 90.1392 32.858 90.1392C34.1307 90.1392 34.8267 89.2045 34.8267 88.0909V87.554C34.8267 86.4403 34.1506 85.5057 32.858 85.5057C31.5852 85.5057 30.8693 86.4403 30.8693 87.554V88.0909ZM25.7983 82.2642C25.7983 83.3778 26.4943 84.3125 27.7869 84.3125C29.0597 84.3125 29.7557 83.3778 29.7557 82.2642V81.7273C29.7557 80.6136 29.0795 79.679 27.7869 79.679C26.5142 79.679 25.7983 80.6136 25.7983 81.7273V82.2642ZM26.1761 90H27.3097L34.3097 79.8182H33.1761L26.1761 90ZM31.8835 87.554C31.8835 86.9375 32.1619 86.3608 32.858 86.3608C33.5739 86.3608 33.8125 86.9375 33.8125 87.554V88.0909C33.8125 88.7074 33.554 89.2841 32.858 89.2841C32.142 89.2841 31.8835 88.7074 31.8835 88.0909V87.554ZM26.8125 81.7273C26.8125 81.1108 27.0909 80.5341 27.7869 80.5341C28.5028 80.5341 28.7415 81.1108 28.7415 81.7273V82.2642C28.7415 82.8807 28.483 83.4574 27.7869 83.4574C27.071 83.4574 26.8125 82.8807 26.8125 82.2642V81.7273Z" fill="white"/>
<path d="M5.25071 3.81818H4.01776L1.4723 5.50852V6.76136L3.9581 5.1108H4.01776V14H5.25071V3.81818ZM11.5 14.1392C13.7472 14.1392 15.0398 12.2351 15.0398 8.90909C15.0398 5.60795 13.7273 3.67898 11.5 3.67898C9.27273 3.67898 7.96023 5.60795 7.96023 8.90909C7.96023 12.2351 9.25284 14.1392 11.5 14.1392ZM11.5 13.0455C10.0185 13.0455 9.15341 11.5589 9.15341 8.90909C9.15341 6.2642 10.0284 4.75284 11.5 4.75284C12.9716 4.75284 13.8466 6.2642 13.8466 8.90909C13.8466 11.5589 12.9815 13.0455 11.5 13.0455ZM20.25 14.1392C22.4972 14.1392 23.7898 12.2351 23.7898 8.90909C23.7898 5.60795 22.4773 3.67898 20.25 3.67898C18.0227 3.67898 16.7102 5.60795 16.7102 8.90909C16.7102 12.2351 18.0028 14.1392 20.25 14.1392ZM20.25 13.0455C18.7685 13.0455 17.9034 11.5589 17.9034 8.90909C17.9034 6.2642 18.7784 4.75284 20.25 4.75284C21.7216 4.75284 22.5966 6.2642 22.5966 8.90909C22.5966 11.5589 21.7315 13.0455 20.25 13.0455ZM30.8693 12.0909C30.8693 13.2045 31.5653 14.1392 32.858 14.1392C34.1307 14.1392 34.8267 13.2045 34.8267 12.0909V11.554C34.8267 10.4403 34.1506 9.50568 32.858 9.50568C31.5852 9.50568 30.8693 10.4403 30.8693 11.554V12.0909ZM25.7983 6.2642C25.7983 7.37784 26.4943 8.3125 27.7869 8.3125C29.0597 8.3125 29.7557 7.37784 29.7557 6.2642V5.72727C29.7557 4.61364 29.0795 3.67898 27.7869 3.67898C26.5142 3.67898 25.7983 4.61364 25.7983 5.72727V6.2642ZM26.1761 14H27.3097L34.3097 3.81818H33.1761L26.1761 14ZM31.8835 11.554C31.8835 10.9375 32.1619 10.3608 32.858 10.3608C33.5739 10.3608 33.8125 10.9375 33.8125 11.554V12.0909C33.8125 12.7074 33.554 13.2841 32.858 13.2841C32.142 13.2841 31.8835 12.7074 31.8835 12.0909V11.554ZM26.8125 5.72727C26.8125 5.1108 27.0909 4.53409 27.7869 4.53409C28.5028 4.53409 28.7415 5.1108 28.7415 5.72727V6.2642C28.7415 6.88068 28.483 7.45739 27.7869 7.45739C27.071 7.45739 26.8125 6.88068 26.8125 6.2642V5.72727Z" fill="white"/>
<line x1="18" y1="322.5" x2="392" y2="322.5" stroke="#B1B1B1" stroke-dasharray="2 2"/>
<defs>
<linearGradient id="paint0_linear_18_294" x1="57" y1="53" x2="244.642" y2="73.9067" gradientUnits="userSpaceOnUse">
<stop stop-color="#FF810A"/>
<stop offset="1" stop-color="#FFAB5C"/>
</linearGradient>
<linearGradient id="paint1_linear_18_294" x1="232" y1="297" x2="309.945" y2="390.445" gradientUnits="userSpaceOnUse">
<stop stop-color="#1C2222"/>
<stop offset="1" stop-color="#2E3838"/>
</linearGradient>
</defs>
</svg>
