<svg width="48" height="48" viewBox="0 0 48 48" fill="none" xmlns="http://www.w3.org/2000/svg">
<path fill-rule="evenodd" clip-rule="evenodd" d="M28.5643 4.62582C29.1636 5.25962 29.2831 6.20876 28.8594 6.9713C28.8307 7.02301 28.8021 7.07439 28.7736 7.12548C28.1917 8.17002 27.6768 9.09443 27.6942 10.2511C27.7105 11.3309 28.4881 13.295 31.0675 15.4714C34.5588 18.4172 36.2847 22.0488 37.1379 24.8943C37.5655 26.3203 37.7802 27.568 37.8885 28.4683C37.9427 28.9194 37.9706 29.286 37.9849 29.5475C37.992 29.6784 37.9958 29.7832 37.9978 29.8594C37.9988 29.8975 37.9993 29.9285 37.9996 29.952L37.9999 29.9817L38 29.9923L38 29.9965C38 29.9965 38 30 36 30H38C38 37.732 31.732 44 24 44C16.268 44 10 37.732 10 30C10 26.1415 10.5416 22.7743 11.3106 20.2746C11.6929 19.0321 12.1507 17.94 12.6686 17.0928C12.9272 16.6698 13.2314 16.2571 13.5899 15.9118C13.9341 15.5802 14.4429 15.2003 15.1165 15.0488C15.6662 14.9251 16.2426 15.039 16.7039 15.3625C17.1652 15.686 17.4686 16.1891 17.5396 16.7481C17.6038 17.2531 17.8136 17.9927 18.1475 18.7735C18.1308 17.447 18.2289 16.0387 18.5 14.6236C19.2554 10.6813 21.3982 6.5461 26.2389 4.20022C27.0239 3.8198 27.9649 3.99203 28.5643 4.62582ZM34 30.0053C33.9971 35.5257 29.5211 40 24 40C18.4772 40 14 35.5229 14 30C14 26.583 14.4701 23.6801 15.0845 21.6138C15.242 21.9025 15.4095 22.1856 15.586 22.4592C16.5911 24.0173 18.3716 26 20.8889 26C21.5191 26 22.1124 25.703 22.49 25.1985C22.8676 24.6941 22.9854 24.0411 22.8079 23.4365C22.2888 21.6687 21.8306 18.4969 22.4286 15.3764C22.6836 14.0451 23.1226 12.7503 23.8186 11.5761C24.2236 13.8035 25.6424 16.1276 28.4881 18.5286C31.2189 20.8328 32.6042 23.7012 33.3065 26.0432C33.6567 27.211 33.8309 28.2288 33.9171 28.9458C33.9601 29.3033 33.9808 29.5832 33.9908 29.766C33.9958 29.8573 33.9981 29.9241 33.9992 29.964L34 30.0032L34 30.0053Z" fill="#676767"/>
</svg>
