<svg width="144" height="28" viewBox="0 0 144 28" fill="none" xmlns="http://www.w3.org/2000/svg">
<path d="M39.5594 18.8279C40.6007 18.8279 41.4858 18.6688 42.2147 18.3505C42.9436 18.0323 43.4903 17.607 43.8547 17.0749C44.2192 16.5427 44.4014 15.9479 44.4014 15.2905C44.4014 14.5288 44.2009 13.9262 43.8 13.4827C43.3991 13.0392 42.9254 12.7157 42.3787 12.5123C41.832 12.3088 41.1421 12.1184 40.3091 11.941C39.5698 11.7844 39.0335 11.6331 38.7003 11.487C38.3671 11.341 38.2005 11.1218 38.2005 10.8297C38.2005 10.5375 38.3411 10.3001 38.6222 10.1175C38.9034 9.93487 39.3511 9.84357 39.9655 9.84357C40.9443 9.84357 41.9544 10.1253 42.9956 10.6888L43.9484 8.38792C43.4174 8.07487 42.803 7.83748 42.1053 7.67574C41.4077 7.514 40.6996 7.43313 39.9811 7.43313C38.9294 7.43313 38.0417 7.58966 37.318 7.9027C36.5943 8.21574 36.0502 8.64096 35.6858 9.17835C35.3213 9.71574 35.1391 10.3184 35.1391 10.9862C35.1391 11.7479 35.3369 12.3531 35.7326 12.8018C36.1283 13.2505 36.6021 13.5766 37.154 13.7801C37.7059 13.9836 38.3931 14.174 39.2158 14.3514C39.9655 14.5184 40.5096 14.6775 40.848 14.8288C41.1864 14.9801 41.3556 15.2123 41.3556 15.5253C41.3556 16.1201 40.7621 16.4175 39.575 16.4175C38.9502 16.4175 38.315 16.3184 37.6694 16.1201C37.0238 15.9218 36.4563 15.661 35.9669 15.3375L34.9517 17.6227C35.4723 17.9879 36.1491 18.2801 36.9822 18.4992C37.8152 18.7184 38.6743 18.8279 39.5594 18.8279ZM49.6703 18.7497C50.5867 18.7497 51.4093 18.5618 52.1382 18.1862C52.8671 17.8105 53.4346 17.2888 53.8407 16.621C54.2468 15.9531 54.4499 15.1966 54.4499 14.3514C54.4499 13.5062 54.2468 12.7523 53.8407 12.0897C53.4346 11.427 52.8671 10.9105 52.1382 10.5401C51.4093 10.1697 50.5867 9.98444 49.6703 9.98444C48.754 9.98444 47.934 10.1697 47.2103 10.5401C46.4866 10.9105 45.9191 11.4297 45.5078 12.0975C45.0965 12.7653 44.8908 13.5166 44.8908 14.3514C44.8908 15.1966 45.0965 15.9531 45.5078 16.621C45.9191 17.2888 46.4892 17.8105 47.2181 18.1862C47.947 18.5618 48.7644 18.7497 49.6703 18.7497ZM49.6703 16.3862C49.1497 16.3862 48.7228 16.2062 48.3895 15.8462C48.0563 15.4862 47.8897 14.9879 47.8897 14.3514C47.8897 13.7253 48.0563 13.2349 48.3895 12.8801C48.7228 12.5253 49.1497 12.3479 49.6703 12.3479C50.191 12.3479 50.6179 12.5253 50.9511 12.8801C51.2843 13.2349 51.4509 13.7253 51.4509 14.3514C51.4509 14.9879 51.2843 15.4862 50.9511 15.8462C50.6179 16.2062 50.191 16.3862 49.6703 16.3862ZM58.5317 18.6088V6.99487H55.5641V18.6088H58.5317ZM62.8635 18.7497C64.1026 18.7497 64.9357 18.3375 65.3626 17.5131V18.6088H68.1273V13.8975C68.1273 12.5723 67.7576 11.5888 67.0183 10.947C66.279 10.3053 65.2064 9.98444 63.8007 9.98444C63.1238 9.98444 62.4496 10.0705 61.778 10.2427C61.1063 10.4149 60.5362 10.6575 60.0676 10.9705L61.0673 12.9897C61.3588 12.7601 61.7129 12.5801 62.1294 12.4497C62.5459 12.3192 62.9572 12.254 63.3633 12.254C64.5088 12.254 65.1075 12.7027 65.1596 13.6001H63.4727C62.1919 13.6001 61.2443 13.8218 60.6299 14.2653C60.0156 14.7088 59.7084 15.3323 59.7084 16.1357C59.7084 16.6366 59.8307 17.0827 60.0755 17.474C60.3202 17.8653 60.682 18.1757 61.161 18.4053C61.64 18.6349 62.2075 18.7497 62.8635 18.7497ZM63.6913 16.8714C63.3477 16.8714 63.077 16.7931 62.8791 16.6366C62.6813 16.4801 62.5824 16.2714 62.5824 16.0105C62.5824 15.4366 63.0145 15.1497 63.8788 15.1497H65.1596V15.8853C65.045 16.2088 64.8576 16.454 64.5973 16.621C64.3369 16.7879 64.035 16.8714 63.6913 16.8714ZM72.7089 18.6088V14.5079C72.7089 13.8401 72.8625 13.3392 73.1697 13.0053C73.4769 12.6714 73.8856 12.5044 74.3958 12.5044C75.3226 12.5044 75.786 13.0836 75.786 14.2418V18.6088H78.7536V13.7566C78.7536 12.494 78.4334 11.5497 77.793 10.9236C77.1526 10.2975 76.3066 9.98444 75.2549 9.98444C74.7134 9.98444 74.2136 10.0757 73.7554 10.2584C73.2973 10.441 72.9016 10.7044 72.5684 11.0488V10.1253H69.7412V18.6088H72.7089ZM83.0229 18.7497C84.2621 18.7497 85.0951 18.3375 85.522 17.5131V18.6088H88.2867V13.8975C88.2867 12.5723 87.917 11.5888 87.1777 10.947C86.4384 10.3053 85.3658 9.98444 83.9601 9.98444C83.2833 9.98444 82.609 10.0705 81.9374 10.2427C81.2658 10.4149 80.6956 10.6575 80.2271 10.9705L81.2267 12.9897C81.5183 12.7601 81.8723 12.5801 82.2888 12.4497C82.7053 12.3192 83.1167 12.254 83.5228 12.254C84.6682 12.254 85.2669 12.7027 85.319 13.6001H83.6321C82.3513 13.6001 81.4037 13.8218 80.7894 14.2653C80.175 14.7088 79.8678 15.3323 79.8678 16.1357C79.8678 16.6366 79.9902 17.0827 80.2349 17.474C80.4796 17.8653 80.8414 18.1757 81.3204 18.4053C81.7994 18.6349 82.3669 18.7497 83.0229 18.7497ZM83.8508 16.8714C83.5071 16.8714 83.2364 16.7931 83.0386 16.6366C82.8407 16.4801 82.7418 16.2714 82.7418 16.0105C82.7418 15.4366 83.1739 15.1497 84.0382 15.1497H85.319V15.8853C85.2044 16.2088 85.017 16.454 84.7567 16.621C84.4964 16.7879 84.1944 16.8714 83.8508 16.8714ZM100.23 18.6088C101.688 18.6088 102.802 18.3479 103.573 17.8262C104.343 17.3044 104.729 16.5636 104.729 15.6036C104.729 14.9462 104.552 14.3853 104.198 13.921C103.844 13.4566 103.354 13.1149 102.729 12.8957C103.198 12.6557 103.56 12.3297 103.815 11.9175C104.07 11.5053 104.198 11.0384 104.198 10.5166C104.198 9.64009 103.833 8.94357 103.104 8.42705C102.375 7.91053 101.313 7.65226 99.9179 7.65226H94.3262V18.6088H100.23ZM99.5118 12.0036H97.3876V9.89053H99.5118C100.553 9.89053 101.074 10.2401 101.074 10.9392C101.074 11.6488 100.553 12.0036 99.5118 12.0036ZM99.9804 16.3705H97.3876V14.1479H99.9804C101.063 14.1479 101.605 14.5184 101.605 15.2592C101.605 16.0001 101.063 16.3705 99.9804 16.3705ZM110.372 18.7497C111.955 18.7497 113.158 18.2905 113.981 17.3723L112.419 15.7444C112.117 16.0053 111.817 16.1931 111.521 16.3079C111.224 16.4227 110.872 16.4801 110.466 16.4801C109.925 16.4801 109.474 16.3627 109.115 16.1279C108.756 15.8931 108.514 15.5566 108.389 15.1184H114.543C114.574 14.6488 114.59 14.4036 114.59 14.3827C114.59 13.4749 114.389 12.6897 113.988 12.027C113.587 11.3644 113.043 10.8584 112.356 10.5088C111.669 10.1592 110.904 9.98444 110.06 9.98444C109.175 9.98444 108.378 10.1723 107.67 10.5479C106.962 10.9236 106.408 11.4427 106.007 12.1053C105.606 12.7679 105.406 13.5166 105.406 14.3514C105.406 15.1966 105.611 15.9531 106.022 16.621C106.434 17.2888 107.014 17.8105 107.764 18.1862C108.514 18.5618 109.383 18.7497 110.372 18.7497ZM111.809 13.5531H108.342C108.425 13.1044 108.621 12.7497 108.928 12.4888C109.235 12.2279 109.618 12.0975 110.076 12.0975C110.534 12.0975 110.917 12.2279 111.224 12.4888C111.531 12.7497 111.726 13.1044 111.809 13.5531ZM118.141 18.7497C119.38 18.7497 120.213 18.3375 120.64 17.5131V18.6088H123.404V13.8975C123.404 12.5723 123.035 11.5888 122.295 10.947C121.556 10.3053 120.483 9.98444 119.078 9.98444C118.401 9.98444 117.727 10.0705 117.055 10.2427C116.383 10.4149 115.813 10.6575 115.345 10.9705L116.344 12.9897C116.636 12.7601 116.99 12.5801 117.406 12.4497C117.823 12.3192 118.234 12.254 118.64 12.254C119.786 12.254 120.385 12.7027 120.437 13.6001H118.75C117.469 13.6001 116.521 13.8218 115.907 14.2653C115.293 14.7088 114.985 15.3323 114.985 16.1357C114.985 16.6366 115.108 17.0827 115.352 17.474C115.597 17.8653 115.959 18.1757 116.438 18.4053C116.917 18.6349 117.485 18.7497 118.141 18.7497ZM118.968 16.8714C118.625 16.8714 118.354 16.7931 118.156 16.6366C117.958 16.4801 117.859 16.2714 117.859 16.0105C117.859 15.4366 118.292 15.1497 119.156 15.1497H120.437V15.8853C120.322 16.2088 120.135 16.454 119.874 16.621C119.614 16.7879 119.312 16.8714 118.968 16.8714ZM129.47 18.7497C130.428 18.7497 131.256 18.5436 131.953 18.1314C132.651 17.7192 133.146 17.1479 133.437 16.4175L131.141 15.2436C130.756 16.0053 130.193 16.3862 129.454 16.3862C128.923 16.3862 128.483 16.2062 128.134 15.8462C127.786 15.4862 127.611 14.9879 127.611 14.3514C127.611 13.7253 127.786 13.2349 128.134 12.8801C128.483 12.5253 128.923 12.3479 129.454 12.3479C130.193 12.3479 130.756 12.7288 131.141 13.4905L133.437 12.3166C133.146 11.5862 132.651 11.0149 131.953 10.6027C131.256 10.1905 130.428 9.98444 129.47 9.98444C128.533 9.98444 127.694 10.1697 126.955 10.5401C126.216 10.9105 125.64 11.427 125.229 12.0897C124.818 12.7523 124.612 13.5062 124.612 14.3514C124.612 15.1966 124.818 15.9531 125.229 16.621C125.64 17.2888 126.216 17.8105 126.955 18.1862C127.694 18.5618 128.533 18.7497 129.47 18.7497ZM137.238 18.6088V14.5079C137.238 13.8401 137.391 13.3392 137.699 13.0053C138.006 12.6714 138.414 12.5044 138.925 12.5044C139.851 12.5044 140.315 13.0836 140.315 14.2418V18.6088H143.283V13.7566C143.283 12.494 142.962 11.5497 142.322 10.9236C141.682 10.2975 140.836 9.98444 139.784 9.98444C139.284 9.98444 138.815 10.0627 138.378 10.2192C137.941 10.3757 137.561 10.6053 137.238 10.9079V6.99487H134.27V18.6088H137.238Z" fill="white"/>
<path fill-rule="evenodd" clip-rule="evenodd" d="M14.8392 0.609009C22.4591 0.609009 28.6363 6.79916 28.6363 14.4351C28.6363 14.7837 28.5741 15.4158 28.4496 16.3312C28.4145 16.5897 28.1941 16.7824 27.9338 16.7825L23.8203 16.7829C23.6046 16.7829 23.4298 16.9581 23.4298 17.1742C23.4298 17.3776 23.5847 17.5448 23.7827 17.5637L23.8203 17.5655L27.866 17.565C28.0346 17.565 28.1713 17.702 28.1713 17.8709C28.1713 17.8921 28.1691 17.9131 28.1648 17.9338C28.1142 18.1754 27.9016 18.3484 27.6552 18.3484H2.02307C1.8072 18.3484 1.63221 18.173 1.63221 17.9567C1.63221 17.7404 1.8072 17.565 2.02307 17.565C2.02308 17.565 2.02309 17.565 2.0231 17.565L7.68026 17.5655C7.89592 17.5655 8.07075 17.3903 8.07075 17.1742C8.07075 16.9708 7.91589 16.8037 7.71787 16.7847L7.68026 16.7829L1.68707 16.7824C1.45948 16.7824 1.26575 16.6164 1.2304 16.3911C1.20141 16.2064 1.32737 16.033 1.51174 16.004C1.52912 16.0013 1.54669 15.9999 1.56428 15.9999L3.77542 16.0003C3.99108 16.0003 4.1659 15.8251 4.1659 15.609C4.1659 15.4056 4.01104 15.2385 3.81302 15.2195L3.77542 15.2177L1.57011 15.2175C1.29184 15.2174 1.06279 14.9982 1.05006 14.7196C1.0447 14.6023 1.04202 14.5074 1.04202 14.4351C1.04202 6.79916 7.21921 0.609009 14.8392 0.609009ZM26.4235 15.2177H23.56C23.3443 15.2177 23.1695 15.3929 23.1695 15.609C23.1695 15.8124 23.3244 15.9796 23.5224 15.9985L23.56 16.0003H26.4235C26.6392 16.0003 26.814 15.8251 26.814 15.609C26.814 15.4056 26.6592 15.2385 26.4611 15.2195L26.4235 15.2177Z" fill="url(#paint0_linear_16_131)"/>
<path fill-rule="evenodd" clip-rule="evenodd" d="M17.8339 23.8265C18.0495 23.8265 18.2244 24.0017 18.2244 24.2178C18.2244 24.4339 18.0495 24.6091 17.8339 24.6091H7.68128C7.46562 24.6091 7.2908 24.4339 7.2908 24.2178C7.2908 24.0017 7.46562 23.8265 7.68128 23.8265H17.8339ZM25.6436 22.2613C25.8592 22.2613 26.0341 22.4365 26.0341 22.6526C26.0341 22.8687 25.8592 23.0439 25.6436 23.0439H20.6974C20.4818 23.0439 20.307 22.8687 20.307 22.6526C20.307 22.4365 20.4818 22.2613 20.6974 22.2613H25.6436ZM17.0529 22.2613C17.2686 22.2613 17.4434 22.4365 17.4434 22.6526C17.4434 22.8687 17.2686 23.0439 17.0529 23.0439H3.51611C3.30045 23.0439 3.12562 22.8687 3.12562 22.6526C3.12562 22.4365 3.30045 22.2613 3.51611 22.2613H17.0529ZM5.5987 20.6961C5.81435 20.6961 5.98918 20.8713 5.98918 21.0874C5.98918 21.3035 5.81435 21.4787 5.5987 21.4787H0.652555C0.436896 21.4787 0.26207 21.3035 0.26207 21.0874C0.26207 20.8713 0.436896 20.6961 0.652555 20.6961H5.5987ZM18.6149 20.6961C18.8305 20.6961 19.0053 20.8713 19.0053 21.0874C19.0053 21.3035 18.8305 21.4787 18.6149 21.4787H10.0242C9.80853 21.4787 9.63371 21.3035 9.63371 21.0874C9.63371 20.8713 9.80853 20.6961 10.0242 20.6961H18.6149ZM28.5071 20.6961C28.7228 20.6961 28.8976 20.8713 28.8976 21.0874C28.8976 21.3035 28.7228 21.4787 28.5071 21.4787H23.561C23.3453 21.4787 23.1705 21.3035 23.1705 21.0874C23.1705 20.8713 23.3453 20.6961 23.561 20.6961H28.5071ZM8.46225 20.6961C8.67791 20.6961 8.85274 20.8713 8.85274 21.0874C8.85274 21.3035 8.67791 21.4787 8.46225 21.4787H7.16063C6.94498 21.4787 6.77015 21.3035 6.77015 21.0874C6.77015 20.8713 6.94498 20.6961 7.16063 20.6961H8.46225ZM21.7387 20.6961C21.9544 20.6961 22.1292 20.8713 22.1292 21.0874C22.1292 21.3035 21.9544 21.4787 21.7387 21.4787H20.4371C20.2215 21.4787 20.0466 21.3035 20.0466 21.0874C20.0466 20.8713 20.2215 20.6961 20.4371 20.6961H21.7387ZM27.2055 19.1309C27.4212 19.1309 27.596 19.3061 27.596 19.5222C27.596 19.7383 27.4212 19.9135 27.2055 19.9135H1.95417C1.73851 19.9135 1.56369 19.7383 1.56369 19.5222C1.56369 19.3061 1.73851 19.1309 1.95417 19.1309H27.2055Z" fill="url(#paint1_linear_16_131)"/>
<path d="M18.8745 25.3915H12.1061C11.8905 25.3915 11.7156 25.5667 11.7156 25.7828C11.7156 25.9989 11.8905 26.1741 12.1061 26.1741H18.8745C19.0902 26.1741 19.265 25.9989 19.265 25.7828C19.265 25.5667 19.0902 25.3915 18.8745 25.3915Z" fill="url(#paint2_linear_16_131)"/>
<path d="M16.2712 26.9572H13.668C13.4524 26.9572 13.2775 27.1323 13.2775 27.3485C13.2775 27.5646 13.4524 27.7398 13.668 27.7398H16.2712C16.4869 27.7398 16.6617 27.5646 16.6617 27.3485C16.6617 27.1323 16.4869 26.9572 16.2712 26.9572Z" fill="url(#paint3_linear_16_131)"/>
<path d="M36.3762 24.1586C36.6446 24.1586 36.8626 24.1186 37.0301 24.0386C37.1976 23.9585 37.3202 23.8501 37.3979 23.7134C37.4755 23.5767 37.5143 23.4227 37.5143 23.2515C37.5143 23.0714 37.4788 22.9191 37.4078 22.7946C37.3368 22.6701 37.2487 22.5745 37.1433 22.5078C37.0379 22.4411 36.933 22.4044 36.8288 22.3977V22.3644C36.9264 22.3377 37.0171 22.2966 37.1008 22.241C37.1846 22.1854 37.2523 22.1098 37.3038 22.0142C37.3554 21.9186 37.3812 21.7974 37.3812 21.6507C37.3812 21.484 37.3435 21.3319 37.2681 21.1946C37.1926 21.0574 37.0778 20.9479 36.9236 20.8661C36.7694 20.7844 36.5736 20.7436 36.3362 20.7436H35.1448V24.1586H36.3762ZM36.3229 22.2443H35.5575V21.1104H36.3362C36.5625 21.1104 36.7278 21.163 36.8321 21.268C36.9364 21.3731 36.9885 21.5006 36.9885 21.6507C36.9885 21.7708 36.9588 21.8753 36.8995 21.9642C36.8401 22.0531 36.7603 22.122 36.6599 22.171C36.5595 22.2199 36.4472 22.2443 36.3229 22.2443ZM36.3762 23.7918H35.5575V22.6045H36.3961C36.5448 22.6045 36.6735 22.6342 36.7822 22.6937C36.8909 22.7532 36.9746 22.8321 37.0334 22.9305C37.0922 23.0289 37.1216 23.1359 37.1216 23.2515C37.1216 23.4016 37.0648 23.5291 36.9511 23.6342C36.8374 23.7392 36.6457 23.7918 36.3762 23.7918ZM39.4897 24.1586V22.7512L40.7211 20.7436H40.2485L39.3034 22.3377H39.2634L38.3183 20.7436H37.8457L39.0771 22.7512V24.1586H39.4897ZM43.5404 24.2186C43.8022 24.2186 44.0249 24.1747 44.2085 24.0869C44.3921 23.9991 44.5319 23.8807 44.6278 23.7317C44.7238 23.5828 44.7718 23.416 44.7718 23.2315C44.7718 23.0714 44.739 22.9363 44.6736 22.8263C44.6081 22.7162 44.5252 22.6259 44.4248 22.5553C44.3244 22.4847 44.2196 22.4289 44.1103 22.3877C44.0011 22.3466 43.902 22.3144 43.8133 22.291L43.4672 22.1976C43.404 22.181 43.3346 22.159 43.2592 22.1318C43.1838 22.1045 43.1116 22.0695 43.0429 22.0267C42.9741 21.9839 42.9178 21.93 42.874 21.865C42.8302 21.7999 42.8082 21.7219 42.8082 21.6307C42.8082 21.5218 42.8396 21.4245 42.9023 21.3389C42.9649 21.2533 43.0526 21.186 43.1652 21.1371C43.2778 21.0882 43.4095 21.0637 43.5604 21.0637C43.7667 21.0637 43.9409 21.1104 44.0829 21.2038C44.2249 21.2972 44.3058 21.4284 44.3258 21.5973H44.7252C44.7196 21.425 44.6667 21.2711 44.5663 21.1354C44.4659 20.9998 44.3303 20.8928 44.1594 20.8145C43.9886 20.7361 43.7933 20.6969 43.5737 20.6969C43.3563 20.6969 43.1596 20.7366 42.9838 20.8161C42.808 20.8956 42.6682 21.0068 42.5645 21.1496C42.4607 21.2925 42.4089 21.4595 42.4089 21.6507C42.4089 21.8808 42.4865 22.067 42.6418 22.2093C42.7972 22.3516 43.0079 22.4611 43.2742 22.5378L43.6935 22.6579C43.8133 22.6912 43.9248 22.7301 44.028 22.7746C44.1311 22.8191 44.2143 22.8769 44.2776 22.948C44.3408 23.0192 44.3724 23.1114 44.3724 23.2248C44.3724 23.3493 44.3358 23.458 44.2626 23.5508C44.1894 23.6436 44.0901 23.7159 43.9647 23.7676C43.8394 23.8193 43.6979 23.8451 43.5404 23.8451C43.4051 23.8451 43.2789 23.8248 43.1618 23.7843C43.0448 23.7437 42.9483 23.6814 42.8723 23.5975C42.7963 23.5136 42.7528 23.4071 42.7417 23.2782H42.3157C42.329 23.4649 42.3864 23.6289 42.4879 23.7701C42.5894 23.9113 42.7292 24.0213 42.9073 24.1002C43.0853 24.1792 43.2964 24.2186 43.5404 24.2186ZM46.6939 24.1586V21.1104H47.7655V20.7436H45.2096V21.1104H46.2813V24.1586H46.6939ZM48.0903 24.1586L48.4327 23.1916H49.8108L50.1536 24.1586H50.5863L49.3349 20.7436H48.909L47.6576 24.1586H48.0903ZM49.6809 22.8248H48.5626L49.1086 21.2839H49.1353L49.6809 22.8248ZM51.4767 24.1586V23.0514L51.9027 22.5712L53.0875 24.1586H53.5867L52.1557 22.2844L53.5867 20.7436H53.0476L51.5167 22.4378H51.4767V20.7436H51.0641V24.1586H51.4767ZM54.4772 24.1586V20.7436H54.0645V24.1586H54.4772ZM55.6605 24.1586V21.4773H55.6938L57.5508 24.1586H57.9502V20.7436H57.5442V23.4316H57.5109L55.6472 20.7436H55.2479V24.1586H55.6605ZM60.1053 24.2053C60.376 24.2053 60.6159 24.1483 60.825 24.0344C61.0341 23.9204 61.1983 23.7595 61.3175 23.5516C61.4368 23.3438 61.4964 23.0992 61.4964 22.8179V22.4511H60.1985V22.8179L61.0964 22.818L61.0951 22.8683C61.0872 23.0199 61.0558 23.156 61.0009 23.2767L60.9714 23.3357C60.8877 23.4897 60.7712 23.6086 60.622 23.6925C60.4728 23.7765 60.3005 23.8184 60.1053 23.8184C59.8945 23.8184 59.7048 23.7662 59.5362 23.6617C59.3676 23.5572 59.2339 23.4032 59.1352 23.1998C59.0365 22.9964 58.9871 22.7468 58.9871 22.4511C58.9871 22.1554 59.0359 21.9058 59.1335 21.7024C59.2311 21.499 59.3626 21.345 59.5279 21.2405C59.6932 21.136 59.8768 21.0838 60.0787 21.0838C60.2018 21.0838 60.315 21.1004 60.4181 21.1338C60.5213 21.1671 60.6137 21.2155 60.6952 21.2789C60.7767 21.3422 60.8472 21.4186 60.9065 21.5081C60.9659 21.5976 61.0138 21.6985 61.0505 21.8108H61.4764C61.4454 21.6451 61.3888 21.4942 61.3067 21.3581C61.2246 21.2219 61.1223 21.1046 60.9997 21.0062C60.8771 20.9078 60.7379 20.8317 60.582 20.7778C60.4262 20.7239 60.2584 20.6969 60.0787 20.6969C59.8601 20.6969 59.6599 20.7375 59.478 20.8186C59.296 20.8998 59.1385 21.0165 59.0054 21.1688C58.8723 21.3211 58.7694 21.5054 58.6967 21.7216C58.6241 21.9378 58.5877 22.181 58.5877 22.4511C58.5877 22.8113 58.6512 23.1225 58.7783 23.3849C58.9053 23.6472 59.0828 23.8496 59.3107 23.9919C59.5387 24.1342 59.8036 24.2053 60.1053 24.2053ZM63.8232 24.1586V22.6312H65.3008V22.2643H63.8232V21.1104H65.4539V20.7436H63.4105V24.1586H63.8232ZM65.8185 24.1586L66.161 23.1916H67.5391L67.8819 24.1586H68.3145L67.0632 20.7436H66.6372L65.3859 24.1586H65.8185ZM67.4092 22.8248H66.2909L66.8369 21.2839H66.8635L67.4092 22.8248ZM70.0037 24.2053C70.1757 24.2053 70.3374 24.1803 70.4888 24.1303C70.6402 24.0802 70.7769 24.0071 70.899 23.911C71.021 23.8148 71.1231 23.6978 71.2051 23.56C71.2872 23.4221 71.3438 23.2659 71.3749 23.0914H70.9622C70.9378 23.2093 70.8954 23.3135 70.8349 23.4041C70.7744 23.4947 70.7012 23.5708 70.6153 23.6325C70.5293 23.6942 70.4342 23.7406 70.3299 23.7718C70.2256 23.8029 70.1169 23.8184 70.0037 23.8184C69.7974 23.8184 69.6108 23.7662 69.4438 23.6617C69.2769 23.5572 69.1443 23.4032 69.0461 23.1998C68.9479 22.9964 68.8988 22.7468 68.8988 22.4511C68.8988 22.1554 68.9479 21.9058 69.0461 21.7024C69.1443 21.499 69.2769 21.345 69.4438 21.2405C69.6108 21.136 69.7974 21.0838 70.0037 21.0838C70.1169 21.0838 70.2256 21.0993 70.3299 21.1304C70.4342 21.1616 70.5293 21.208 70.6153 21.2697C70.7012 21.3314 70.7744 21.4073 70.8349 21.4973C70.8954 21.5873 70.9378 21.6918 70.9622 21.8108H71.3749C71.3438 21.6351 71.2872 21.4787 71.2051 21.3414C71.1231 21.2041 71.021 21.0874 70.899 20.9912C70.7769 20.8951 70.6402 20.822 70.4888 20.7719C70.3374 20.7219 70.1757 20.6969 70.0037 20.6969C69.7131 20.6969 69.4546 20.768 69.2283 20.9103C69.002 21.0526 68.824 21.255 68.6942 21.5173C68.5644 21.7797 68.4995 22.0909 68.4995 22.4511C68.4995 22.8113 68.5644 23.1225 68.6942 23.3849C68.824 23.6472 69.002 23.8496 69.2283 23.9919C69.4546 24.1342 69.7131 24.2053 70.0037 24.2053ZM72.3985 24.1586V20.7436H71.9858V24.1586H72.3985ZM75.1659 24.1586V23.7918H73.5818V20.7436H73.1691V24.1586H75.1659ZM76.1629 24.1586V20.7436H75.7503V24.1586H76.1629ZM78.2315 24.1586V21.1104H79.3031V20.7436H76.7472V21.1104H77.8188V24.1586H78.2315ZM80.3001 24.1586V20.7436H79.8874V24.1586H80.3001ZM83.1541 24.1586V23.7918H81.4835V22.6312H83.021V22.2643H81.4835V21.1104H83.1275V20.7436H81.0708V24.1586H83.1541ZM84.8966 24.2186C85.1584 24.2186 85.3811 24.1747 85.5647 24.0869C85.7483 23.9991 85.888 23.8807 85.984 23.7317C86.0799 23.5828 86.1279 23.416 86.1279 23.2315C86.1279 23.0714 86.0952 22.9363 86.0297 22.8263C85.9643 22.7162 85.8814 22.6259 85.781 22.5553C85.6806 22.4847 85.5757 22.4289 85.4665 22.3877C85.3572 22.3466 85.2582 22.3144 85.1695 22.291L84.8233 22.1976C84.7601 22.181 84.6908 22.159 84.6153 22.1318C84.5399 22.1045 84.4678 22.0695 84.399 22.0267C84.3302 21.9839 84.2739 21.93 84.2301 21.865C84.1863 21.7999 84.1644 21.7219 84.1644 21.6307C84.1644 21.5218 84.1957 21.4245 84.2584 21.3389C84.3211 21.2533 84.4087 21.186 84.5213 21.1371C84.6339 21.0882 84.7657 21.0637 84.9165 21.0637C85.1229 21.0637 85.297 21.1104 85.439 21.2038C85.581 21.2972 85.662 21.4284 85.682 21.5973H86.0813C86.0758 21.425 86.0228 21.2711 85.9224 21.1354C85.822 20.9998 85.6864 20.8928 85.5156 20.8145C85.3447 20.7361 85.1495 20.6969 84.9298 20.6969C84.7124 20.6969 84.5158 20.7366 84.34 20.8161C84.1641 20.8956 84.0244 21.0068 83.9206 21.1496C83.8169 21.2925 83.765 21.4595 83.765 21.6507C83.765 21.8808 83.8427 22.067 83.998 22.2093C84.1533 22.3516 84.3641 22.4611 84.6303 22.5378L85.0497 22.6579C85.1695 22.6912 85.2809 22.7301 85.3841 22.7746C85.4873 22.8191 85.5705 22.8769 85.6337 22.948C85.6969 23.0192 85.7286 23.1114 85.7286 23.2248C85.7286 23.3493 85.692 23.458 85.6187 23.5508C85.5455 23.6436 85.4462 23.7159 85.3209 23.7676C85.1955 23.8193 85.0541 23.8451 84.8966 23.8451C84.7612 23.8451 84.635 23.8248 84.518 23.7843C84.401 23.7437 84.3045 23.6814 84.2285 23.5975C84.1525 23.5136 84.1089 23.4071 84.0978 23.2782H83.6719C83.6852 23.4649 83.7426 23.6289 83.8441 23.7701C83.9456 23.9113 84.0854 24.0213 84.2634 24.1002C84.4415 24.1792 84.6525 24.2186 84.8966 24.2186Z" fill="#6BF5E0"/>
<path fill-rule="evenodd" clip-rule="evenodd" d="M91.7665 20.7634C91.8355 20.8326 91.8355 20.9448 91.7665 21.014L90.3913 22.3917L91.7665 23.7697C91.8355 23.8389 91.8355 23.951 91.7665 24.0202C91.6974 24.0894 91.5855 24.0894 91.5165 24.0202L90.1414 22.6422L88.7665 24.0202C88.6975 24.0894 88.5855 24.0894 88.5165 24.0202C88.4475 23.951 88.4475 23.8389 88.5165 23.7697L89.8915 22.3917L88.5165 21.014C88.4475 20.9448 88.4475 20.8326 88.5165 20.7634C88.5855 20.6943 88.6975 20.6943 88.7665 20.7634L90.1414 22.1413L91.5165 20.7634C91.5855 20.6943 91.6974 20.6943 91.7665 20.7634Z" fill="white"/>
<path fill-rule="evenodd" clip-rule="evenodd" d="M98.7586 20.6959C98.9384 20.6959 99.1061 20.7229 99.262 20.7768C99.4179 20.8307 99.5571 20.9069 99.6797 21.0052C99.8023 21.1036 99.9046 21.2209 99.9867 21.3571C100.069 21.4933 100.125 21.6442 100.156 21.8098H99.7304L99.7071 21.7438C99.6742 21.6576 99.634 21.5787 99.5865 21.5072C99.5271 21.4177 99.4567 21.3412 99.3752 21.2779C99.2936 21.2145 99.2013 21.1662 99.0981 21.1328C98.9949 21.0995 98.8818 21.0828 98.7586 21.0828C98.5567 21.0828 98.3732 21.135 98.2079 21.2395C98.0426 21.344 97.9111 21.498 97.8135 21.7014C97.7159 21.9049 97.6671 22.1544 97.6671 22.4501C97.6671 22.7458 97.7164 22.9954 97.8152 23.1988C97.9139 23.4023 98.0476 23.5562 98.2162 23.6607C98.3848 23.7652 98.5745 23.8175 98.7853 23.8175C98.9805 23.8175 99.1527 23.7755 99.3019 23.6916C99.4511 23.6076 99.5676 23.4887 99.6514 23.3347L99.6808 23.2757C99.7358 23.1551 99.7672 23.019 99.7751 22.8674L99.7763 22.817L98.8785 22.817V22.4501H100.176V22.817L100.175 22.9002C100.164 23.1468 100.105 23.3636 99.9975 23.5507C99.8782 23.7585 99.7141 23.9195 99.505 24.0334C99.2958 24.1474 99.056 24.2043 98.7853 24.2043C98.4835 24.2043 98.2187 24.1332 97.9907 23.9909C97.7627 23.8486 97.5853 23.6463 97.4582 23.3839C97.3312 23.1216 97.2677 22.8103 97.2677 22.4501C97.2677 22.18 97.304 21.9368 97.3767 21.7206C97.4494 21.5044 97.5523 21.3201 97.6854 21.1678C97.8185 21.0155 97.976 20.8988 98.1579 20.8176C98.3399 20.7365 98.5401 20.6959 98.7586 20.6959ZM105.658 20.6959C105.838 20.6959 106.006 20.7229 106.161 20.7768C106.317 20.8307 106.457 20.9069 106.579 21.0052C106.702 21.1036 106.804 21.2209 106.886 21.3571C106.968 21.4933 107.025 21.6442 107.056 21.8098H106.63L106.607 21.7438C106.574 21.6576 106.533 21.5787 106.486 21.5072C106.427 21.4177 106.356 21.3412 106.275 21.2779C106.193 21.2145 106.101 21.1662 105.998 21.1328C105.894 21.0995 105.781 21.0828 105.658 21.0828C105.456 21.0828 105.273 21.135 105.107 21.2395C104.942 21.344 104.811 21.498 104.713 21.7014C104.615 21.9049 104.566 22.1544 104.566 22.4501C104.566 22.7458 104.616 22.9954 104.715 23.1988C104.813 23.4023 104.947 23.5562 105.116 23.6607C105.284 23.7652 105.474 23.8175 105.685 23.8175C105.88 23.8175 106.052 23.7755 106.201 23.6916C106.351 23.6076 106.467 23.4887 106.551 23.3347L106.58 23.2757C106.635 23.1551 106.667 23.019 106.674 22.8674L106.676 22.817L105.778 22.817V22.4501H107.076V22.817L107.074 22.9002C107.063 23.1468 107.004 23.3636 106.897 23.5507C106.778 23.7585 106.613 23.9195 106.404 24.0334C106.195 24.1474 105.955 24.2043 105.685 24.2043C105.383 24.2043 105.118 24.1332 104.89 23.9909C104.662 23.8486 104.485 23.6463 104.358 23.3839C104.231 23.1216 104.167 22.8103 104.167 22.4501C104.167 22.18 104.203 21.9368 104.276 21.7206C104.349 21.5044 104.452 21.3201 104.585 21.1678C104.718 21.0155 104.875 20.8988 105.057 20.8176C105.239 20.7365 105.44 20.6959 105.658 20.6959ZM94.5868 20.7426L95.5985 23.6174H95.6384L96.6501 20.7426H97.0828L95.8314 24.1576H95.4054L94.1541 20.7426H94.5868ZM101.227 20.7426L103.09 23.4306H103.124V20.7426H103.53V24.1576H103.13L101.273 21.4763H101.24V24.1576H100.827V20.7426H101.227Z" fill="#6BF5E0"/>
<defs>
<linearGradient id="paint0_linear_16_131" x1="14.8392" y1="-1.68254" x2="14.8392" y2="22.8154" gradientUnits="userSpaceOnUse">
<stop stop-color="#F7C300"/>
<stop offset="1" stop-color="#FA006A"/>
</linearGradient>
<linearGradient id="paint1_linear_16_131" x1="14.5798" y1="-4.0096" x2="14.5798" y2="27.0476" gradientUnits="userSpaceOnUse">
<stop stop-color="#F7C300"/>
<stop offset="1" stop-color="#FA006A"/>
</linearGradient>
<linearGradient id="paint2_linear_16_131" x1="15.4903" y1="22.0857" x2="15.4903" y2="26.5224" gradientUnits="userSpaceOnUse">
<stop stop-color="#F7C300"/>
<stop offset="1" stop-color="#FA006A"/>
</linearGradient>
<linearGradient id="paint3_linear_16_131" x1="14.9696" y1="23.6514" x2="14.9696" y2="28.0881" gradientUnits="userSpaceOnUse">
<stop stop-color="#F7C300"/>
<stop offset="1" stop-color="#FA006A"/>
</linearGradient>
</defs>
</svg>
