<svg width="32" height="32" viewBox="0 0 32 32" fill="none" xmlns="http://www.w3.org/2000/svg">
<circle cx="16" cy="16" r="16" fill="#090B0B"/>
<path d="M26.6464 10.0544C25.0959 8.71223 23.3969 8.70542 21.5978 9.03925C21.6426 8.87574 21.6737 8.76333 21.6668 8.78717C20.6343 9.16869 19.5707 9.60471 18.4795 9.93854C18.0582 10.068 17.5644 9.95557 17.1016 9.95898C16.8668 9.96238 16.632 9.9692 16.3972 9.98623C15.192 10.0714 13.9695 10.3235 12.7851 10.2076C11.5661 10.0884 10.3851 9.61834 9.17989 9.14144C9.28003 9.27088 9.38018 9.40373 9.53903 9.60471C7.7019 9.51274 5.97873 9.58087 4.66996 11.0184C4.47657 10.1055 4.91514 9.02903 5.83025 8.29325C7.85039 6.66839 9.95687 6.96134 12.129 8.05139C11.9632 7.87426 11.7974 7.69712 11.6317 7.51999C11.6835 7.43483 11.68 7.44165 11.7318 7.35308C12.3431 7.51999 12.9888 7.61878 13.5621 7.87426C14.9364 8.48741 16.2141 8.38862 17.5022 7.64262C18.0098 7.34967 18.6038 7.19639 19.1563 6.98178C19.215 7.06013 19.2081 7.04991 19.2668 7.12826L18.7108 7.83679C20.6619 6.52873 22.6855 5.9258 24.8818 7.21682C25.897 7.82316 26.5186 8.70883 26.6464 10.0544Z" fill="url(#paint0_linear)"/>
<path d="M19.6191 12.5683L20.6447 12.5172C20.0576 12.1663 19.4809 11.8223 18.9561 11.5089C20.182 11.6213 21.4182 11.7303 22.6165 11.8393C22.6269 11.8257 22.5302 11.9585 22.43 12.088C22.4853 12.1663 22.5958 12.1867 22.6752 12.1322C23.207 11.7609 23.7423 11.3862 24.2533 11.0286C24.4812 11.7814 24.2602 12.4286 23.573 12.8748C22.5578 13.5357 20.6758 13.3994 19.6191 12.5683Z" fill="url(#paint1_linear)"/>
<path d="M7.02511 11.8597C7.65706 12.2242 8.25447 12.5717 8.85533 12.9191C8.92094 12.8272 8.90713 12.7011 8.82425 12.6228C8.75519 12.5546 8.69994 12.507 8.69303 12.4967C9.84296 12.2958 11.0654 12.0846 12.2084 11.8836C12.1048 11.979 11.8907 12.2072 11.6456 12.3945C11.3797 12.5955 11.0861 12.7624 10.6407 13.0486C11.1586 12.9907 11.4867 12.9532 11.8355 12.9123C11.093 13.8389 8.91404 14.1761 7.93331 13.6651C7.19432 13.2734 6.87317 12.6568 7.02511 11.8597Z" fill="url(#paint2_linear)"/>
<path d="M17.005 22.7228C17.005 22.7228 21.3837 21.7145 23.9149 19.5923C23.6249 18.9076 23.1483 18.2195 23.207 18.3933C22.651 17 22.0295 16.7037 21.7152 16.6594C21.1938 17.2249 20.7207 17.7358 20.2476 18.2468C20.1405 18.1616 20.1854 18.1957 20.0784 18.1105C20.144 18.0186 20.2131 17.93 20.2787 17.838C21.4182 16.2847 21.1144 14.6156 19.4844 13.5766C18.9285 13.2223 18.3552 12.8885 17.7682 12.5785C17.0913 12.2209 16.4318 12.4661 16.1382 13.161C16.0174 13.4438 15.931 13.7401 15.7756 14.183C15.6133 13.8355 15.5132 13.6243 15.4165 13.4131C14.9883 12.4798 14.3218 12.2992 13.4689 12.8953C13.0269 13.2053 12.5814 13.5085 12.1532 13.8321C10.5578 15.0346 10.354 16.7275 11.6145 18.2809C11.763 18.4648 11.9218 18.6453 12.0772 18.8293C12.0151 18.8974 12.0323 18.877 11.9736 18.9417C11.4418 18.5772 10.9135 18.2093 10.361 17.8278C9.33534 19.3164 8.82771 20.9174 8.77246 22.6342L8.91059 22.7398C8.91404 22.7432 12.8887 23.8878 17.005 22.7228ZM19.5086 15.3343C18.0444 17.0137 17.2433 17.1738 16.4179 15.9338C17.4781 15.8793 18.2827 14.871 19.5086 15.3343ZM15.2956 15.9883C14.643 17.3168 13.7106 17.2112 12.2015 15.6852C13.3342 15.0959 14.2424 16.036 15.2956 15.9883Z" fill="url(#paint3_linear)"/>
<path d="M23.3275 21.7519C20.8929 22.4775 19.0696 22.8386 17.5467 23.0498C15.4299 23.5369 13.0575 23.8843 10.6126 23.8878C10.547 23.9048 10.4779 23.9184 10.4089 23.9354C9.50068 24.1943 9.70442 24.0513 9.05176 24.4157L12.7295 24.6542C12.84 24.661 12.8607 24.8109 12.7605 24.8484C12.1804 25.0698 11.659 25.2708 11.0754 25.4956C12.1735 26.7321 13.3476 27.5735 14.8532 27.8494C16.8872 28.2241 18.8417 27.8766 20.6995 27.0625C21.7113 26.6197 22.8509 25.4036 23.2688 24.3953C23.8178 23.0668 24.6639 21.3534 23.3275 21.7519Z" fill="url(#paint4_linear)"/>
<defs>
<linearGradient id="paint0_linear" x1="4.625" y1="6.5" x2="18.8855" y2="19.5192" gradientUnits="userSpaceOnUse">
<stop stop-color="#FD499D"/>
<stop offset="1" stop-color="#FF810A"/>
</linearGradient>
<linearGradient id="paint1_linear" x1="18.9561" y1="11.0286" x2="24.2905" y2="13.404" gradientUnits="userSpaceOnUse">
<stop stop-color="#FD499D"/>
<stop offset="1" stop-color="#FF810A"/>
</linearGradient>
<linearGradient id="paint2_linear" x1="6.98828" y1="11.8597" x2="12.0318" y2="14.2727" gradientUnits="userSpaceOnUse">
<stop stop-color="#FD499D"/>
<stop offset="1" stop-color="#FF810A"/>
</linearGradient>
<linearGradient id="paint3_linear" x1="8.77246" y1="12.4152" x2="25.5974" y2="16.8216" gradientUnits="userSpaceOnUse">
<stop stop-color="#FD499D"/>
<stop offset="1" stop-color="#FF810A"/>
</linearGradient>
<linearGradient id="paint4_linear" x1="9.05176" y1="21.6932" x2="23.9057" y2="28.3069" gradientUnits="userSpaceOnUse">
<stop stop-color="#FD499D"/>
<stop offset="1" stop-color="#FF810A"/>
</linearGradient>
</defs>
</svg>
